millimetreA Bold 01.ufo
<glyph name="quotedbl" format="1">
  <advance width="300"/>
  <unicode hex="0022"/>
  <outline>
    <contour>
      <point x="0" y="630" type="line"/>
      <point x="20" y="500" type="line"/>
      <point x="130" y="500" type="line"/>
      <point x="130" y="700" type="line"/>
      <point x="0" y="700" type="line"/>
    </contour>
    <contour>
      <point x="170" y="500" type="line"/>
      <point x="280" y="500" type="line"/>
      <point x="300" y="630" type="line"/>
      <point x="300" y="700" type="line"/>
      <point x="170" y="700" type="line"/>
    </contour>
  </outline>
</glyph>
<glyph name="numbersign" format="1">
  <advance width="400"/>
  <unicode hex="0023"/>
  <outline>
    <contour>
      <point x="235" y="295" type="line"/>
      <point x="150" y="295" type="line"/>
      <point x="165" y="405" type="line"/>
      <point x="250" y="405" type="line"/>
    </contour>
    <contour>
      <point x="190" y="0" type="line"/>
      <point x="310" y="0" type="line"/>
      <point x="335" y="180" type="line"/>
      <point x="400" y="180" type="line"/>
      <point x="400" y="300" type="line"/>
      <point x="345" y="300" type="line"/>
      <point x="355" y="400" type="line"/>
      <point x="400" y="400" type="line"/>
      <point x="400" y="520" type="line"/>
      <point x="370" y="520" type="line"/>
      <point x="385" y="600" type="line"/>
      <point x="400" y="700" type="line"/>
      <point x="280" y="700" type="line"/>
      <point x="255" y="520" type="line"/>
      <point x="180" y="520" type="line"/>
      <point x="195" y="600" type="line"/>
      <point x="210" y="700" type="line"/>
      <point x="90" y="700" type="line"/>
      <point x="65" y="520" type="line"/>
      <point x="0" y="520" type="line"/>
      <point x="0" y="400" type="line"/>
      <point x="55" y="400" type="line"/>
      <point x="45" y="300" type="line"/>
      <point x="0" y="300" type="line"/>
      <point x="0" y="180" type="line"/>
      <point x="30" y="180" type="line"/>
      <point x="15" y="100" type="line"/>
      <point x="0" y="0" type="line"/>
      <point x="120" y="0" type="line"/>
      <point x="145" y="180" type="line"/>
      <point x="220" y="180" type="line"/>
      <point x="205" y="100" type="line"/>
    </contour>
  </outline>
</glyph>
<glyph name="dollar" format="1">
  <advance width="600"/>
  <unicode hex="0024"/>
  <outline>
    <contour>
      <point x="225.0" y="-50.0" type="line"/>
      <point x="375.0" y="-50.0" type="line"/>
      <point x="375.0" y="46.0" type="line"/>
      <point x="355" y="105" type="line"/>
      <point x="355" y="605" type="line"/>
      <point x="375.0" y="646.0" type="line"/>
      <point x="375.0" y="750.0" type="line"/>
      <point x="225.0" y="750.0" type="line"/>
      <point x="225.0" y="644.0" type="line"/>
      <point x="245" y="605" type="line"/>
      <point x="245" y="90" type="line"/>
      <point x="225.0" y="39.0" type="line"/>
    </contour>
    <component base="S"/>
  </outline>
</glyph>
<glyph name="quotesingle" format="1">
  <advance width="250"/>
  <unicode hex="0027"/>
  <outline>
    <contour>
      <point x="50" y="600" type="line"/>
      <point x="85" y="450" type="line"/>
      <point x="165" y="450" type="line"/>
      <point x="200" y="600" type="line"/>
      <point x="200" y="700" type="line"/>
      <point x="50" y="700" type="line"/>
    </contour>
  </outline>
</glyph>
<glyph name="plus" format="1">
  <advance width="600"/>
  <unicode hex="002B"/>
  <outline>
    <contour>
      <point x="550" y="200" type="line"/>
      <point x="550" y="350" type="line"/>
      <point x="420" y="350" type="line"/>
      <point x="370" y="345" type="line"/>
      <point x="375" y="395" type="line"/>
      <point x="375" y="525" type="line"/>
      <point x="225" y="525" type="line"/>
      <point x="225" y="395" type="line" smooth="yes"/>
      <point x="230" y="345" type="line"/>
      <point x="180" y="350" type="line"/>
      <point x="50" y="350" type="line"/>
      <point x="50" y="200" type="line"/>
      <point x="180" y="200" type="line" smooth="yes"/>
      <point x="230" y="205" type="line"/>
      <point x="225" y="155" type="line"/>
      <point x="225" y="25" type="line"/>
      <point x="375" y="25" type="line"/>
      <point x="375" y="155" type="line"/>
      <point x="370" y="205" type="line"/>
      <point x="420" y="200" type="line"/>
    </contour>
  </outline>
</glyph>
<glyph name="comma" format="1">
  <advance width="250"/>
  <unicode hex="002C"/>
  <outline>
    <contour>
      <point x="50" y="0" type="line"/>
      <point x="80" y="0" type="line"/>
      <point x="80" y="-100" type="line"/>
      <point x="155" y="-100" type="line"/>
      <point x="200" y="50" type="line"/>
      <point x="200" y="150" type="line"/>
      <point x="50" y="150" type="line"/>
    </contour>
  </outline>
</glyph>
<glyph name="period" format="1">
  <advance width="250"/>
  <unicode hex="002E"/>
  <outline>
    <contour>
      <point x="50" y="0" type="line"/>
      <point x="200" y="0" type="line"/>
      <point x="200" y="150" type="line"/>
      <point x="50" y="150" type="line"/>
    </contour>
  </outline>
</glyph>
<glyph name="slash" format="1">
  <advance width="250"/>
  <unicode hex="002F"/>
  <outline>
    <contour>
      <point x="0" y="0" type="line"/>
      <point x="150" y="0" type="line"/>
      <point x="250" y="700" type="line"/>
      <point x="100" y="700" type="line"/>
    </contour>
  </outline>
</glyph>
<glyph name="B" format="1">
  <advance width="600"/>
  <unicode hex="0042"/>
  <outline>
    <contour>
      <point x="330" y="0" type="line" smooth="yes"/>
      <point x="470" y="0"/>
      <point x="550" y="65"/>
      <point x="550" y="195" type="curve" smooth="yes"/>
      <point x="550" y="225" type="line"/>
      <point x="400" y="230" type="line"/>
      <point x="400" y="220" type="line" smooth="yes"/>
      <point x="400" y="170"/>
      <point x="385" y="150"/>
      <point x="300" y="150" type="curve"/>
      <point x="110" y="150" type="line"/>
      <point x="110" y="0" type="line"/>
    </contour>
    <contour>
      <point x="355" y="700" type="curve" smooth="yes"/>
      <point x="110" y="700" type="line"/>
      <point x="110" y="550" type="line"/>
      <point x="340" y="550" type="line"/>
      <point x="380" y="550"/>
      <point x="390" y="535"/>
      <point x="390" y="495" type="curve"/>
      <point x="540" y="500" type="line"/>
      <point x="540" y="625"/>
      <point x="470" y="700"/>
    </contour>
    <contour>
      <point x="200" y="0" type="line"/>
      <point x="200" y="700" type="line"/>
      <point x="50" y="700" type="line"/>
      <point x="50" y="0" type="line"/>
    </contour>
    <contour>
      <point x="550" y="225" type="line"/>
      <point x="550" y="240" type="line" smooth="yes"/>
      <point x="550" y="310"/>
      <point x="525" y="355"/>
      <point x="465" y="375" type="curve"/>
      <point x="520" y="395"/>
      <point x="540" y="445"/>
      <point x="540" y="500" type="curve"/>
      <point x="390" y="495" type="line"/>
      <point x="390" y="460"/>
      <point x="380" y="440"/>
      <point x="340" y="440" type="curve"/>
      <point x="130" y="440" type="line"/>
      <point x="130" y="440" type="line"/>
      <point x="110" y="440" type="line"/>
      <point x="110" y="355" type="line"/>
      <point x="100" y="310" type="line"/>
      <point x="300" y="310" type="line"/>
      <point x="385" y="310"/>
      <point x="400" y="285"/>
      <point x="400" y="240" type="curve" smooth="yes"/>
      <point x="400" y="230" type="line"/>
    </contour>
  </outline>
</glyph>
<glyph name="E" format="1">
  <advance width="600"/>
  <unicode hex="0045"/>
  <outline>
    <contour>
      <point x="50" y="0" type="line"/>
      <point x="200" y="0" type="line"/>
      <point x="200" y="700" type="line"/>
      <point x="50" y="700" type="line"/>
    </contour>
    <contour>
      <point x="100" y="0" type="line"/>
      <point x="550" y="0" type="line"/>
      <point x="550" y="150" type="line"/>
      <point x="100" y="150" type="line"/>
    </contour>
    <contour>
      <point x="100" y="550" type="line"/>
      <point x="550" y="550" type="line"/>
      <point x="550" y="700" type="line"/>
      <point x="100" y="700" type="line"/>
    </contour>
    <contour>
      <point x="100" y="250" type="line"/>
      <point x="500" y="250" type="line"/>
      <point x="500" y="400" type="line"/>
      <point x="100" y="400" type="line"/>
    </contour>
    <contour>
      <point x="315.0" y="650.0" type="move" name="top"/>
    </contour>
  </outline>
</glyph>
<glyph name="K" format="1">
  <advance width="600"/>
  <unicode hex="004B"/>
  <outline>
    <contour>
      <point x="445" y="275" type="line"/>
      <point x="505" y="300"/>
      <point x="524.052696368" y="375.6587046"/>
      <point x="530" y="450" type="curve" smooth="yes"/>
      <point x="550" y="700" type="line"/>
      <point x="400" y="700" type="line"/>
      <point x="380" y="450" type="line" smooth="yes"/>
      <point x="370" y="360"/>
      <point x="360" y="350"/>
      <point x="280" y="350" type="curve"/>
      <point x="200" y="350" type="line"/>
      <point x="200" y="700" type="line"/>
      <point x="50" y="700" type="line"/>
      <point x="50" y="0" type="line"/>
      <point x="200" y="0" type="line"/>
      <point x="200" y="205" type="line"/>
      <point x="300" y="205" type="line"/>
      <point x="380" y="205"/>
      <point x="390" y="195"/>
      <point x="400" y="100" type="curve" smooth="yes"/>
      <point x="410" y="0" type="line"/>
      <point x="560" y="0" type="line"/>
      <point x="550" y="100" type="line" smooth="yes"/>
      <point x="541.512383403" y="184.876165973"/>
      <point x="510" y="270"/>
      <point x="445" y="295" type="curve"/>
    </contour>
  </outline>
</glyph>
<glyph name="M" format="1">
  <advance width="800"/>
  <unicode hex="004D"/>
  <outline>
    <contour>
      <point x="50" y="0" type="line"/>
      <point x="200" y="0" type="line"/>
      <point x="200" y="250" type="line"/>
      <point x="175" y="555" type="line"/>
      <point x="170" y="700" type="line"/>
      <point x="50" y="700" type="line"/>
    </contour>
    <contour>
      <point x="90" y="565" type="line"/>
      <point x="275" y="240" type="line" smooth="yes"/>
      <point x="320" y="160"/>
      <point x="325" y="140"/>
      <point x="325" y="50" type="curve" smooth="yes"/>
      <point x="325" y="0" type="line"/>
      <point x="475" y="0" type="line"/>
      <point x="465" y="65" type="line" smooth="yes"/>
      <point x="450" y="155"/>
      <point x="425" y="280"/>
      <point x="335" y="425" type="curve" smooth="yes"/>
      <point x="170" y="700" type="line"/>
    </contour>
    <contour>
      <point x="750" y="0" type="line"/>
      <point x="750" y="700" type="line"/>
      <point x="630" y="700" type="line"/>
      <point x="625" y="555" type="line"/>
      <point x="600" y="250" type="line"/>
      <point x="600" y="0" type="line"/>
    </contour>
    <contour>
      <point x="710" y="565" type="line"/>
      <point x="630" y="700" type="line"/>
      <point x="465" y="425" type="line" smooth="yes"/>
      <point x="375" y="280"/>
      <point x="350" y="155"/>
      <point x="335" y="65" type="curve" smooth="yes"/>
      <point x="325" y="0" type="line"/>
      <point x="475" y="0" type="line"/>
      <point x="475" y="50" type="line" smooth="yes"/>
      <point x="475" y="140"/>
      <point x="480" y="160"/>
      <point x="525" y="240" type="curve" smooth="yes"/>
    </contour>
  </outline>
</glyph>
<glyph name="Q" format="1">
  <advance width="600"/>
  <unicode hex="0051"/>
  <outline>
    <contour>
      <point x="50" y="455" type="curve"/>
      <point x="50" y="245" type="line"/>
      <point x="50.0" y="93.1632653061"/>
      <point x="115" y="15"/>
      <point x="230" y="5" type="curve"/>
      <point x="225" y="-50" type="line"/>
      <point x="375" y="-50" type="line"/>
      <point x="370" y="5" type="line"/>
      <point x="485" y="15"/>
      <point x="550.0" y="93.1632653061"/>
      <point x="550" y="245" type="curve"/>
      <point x="550" y="455" type="line"/>
      <point x="550" y="630"/>
      <point x="470" y="700"/>
      <point x="330" y="700" type="curve" smooth="yes"/>
      <point x="270" y="700" type="line" smooth="yes"/>
      <point x="130" y="700"/>
      <point x="50" y="630"/>
    </contour>
    <contour>
      <point x="200" y="230" type="curve" smooth="yes"/>
      <point x="200" y="460" type="line" smooth="yes"/>
      <point x="200" y="530"/>
      <point x="220" y="550"/>
      <point x="300" y="550" type="curve"/>
      <point x="380" y="550"/>
      <point x="400" y="530"/>
      <point x="400" y="460" type="curve" smooth="yes"/>
      <point x="400" y="230" type="line" smooth="yes"/>
      <point x="400" y="174.117647059"/>
      <point x="390" y="150"/>
      <point x="360" y="135" type="curve"/>
      <point x="350" y="250" type="line"/>
      <point x="250" y="250" type="line"/>
      <point x="240" y="135" type="line"/>
      <point x="210" y="150"/>
      <point x="200" y="174.117647059"/>
    </contour>
    <contour>
      <point x="300" y="650" type="move" name="top"/>
    </contour>
  </outline>
</glyph>
<glyph name="R" format="1">
  <advance width="600"/>
  <unicode hex="0052"/>
  <outline>
    <contour>
      <point x="200" y="0" type="line"/>
      <point x="200" y="700" type="line"/>
      <point x="50" y="700" type="line"/>
      <point x="50" y="0" type="line"/>
    </contour>
    <contour>
      <point x="400" y="480" type="curve" smooth="yes"/>
      <point x="400" y="460" type="line" smooth="yes"/>
      <point x="400" y="415"/>
      <point x="385" y="390"/>
      <point x="300" y="390" type="curve"/>
      <point x="110" y="390" type="line"/>
      <point x="110" y="260" type="line"/>
      <point x="145" y="265" type="line"/>
      <point x="140" y="260" type="line"/>
      <point x="290" y="260" type="line"/>
      <point x="370" y="260"/>
      <point x="370" y="250"/>
      <point x="385" y="150" type="curve" smooth="yes"/>
      <point x="405" y="0" type="line"/>
      <point x="560" y="0" type="line"/>
      <point x="540" y="150" type="line" smooth="yes"/>
      <point x="530.691685079" y="219.812361907"/>
      <point x="520" y="285"/>
      <point x="460" y="315" type="curve"/>
      <point x="520" y="330"/>
      <point x="550.0" y="385.0"/>
      <point x="550" y="445" type="curve"/>
      <point x="550" y="505" type="line"/>
      <point x="550" y="635"/>
      <point x="470" y="700"/>
      <point x="330" y="700" type="curve" smooth="yes"/>
      <point x="110" y="700" type="line"/>
      <point x="110" y="550" type="line"/>
      <point x="300" y="550" type="line"/>
      <point x="385" y="550"/>
      <point x="400" y="530"/>
    </contour>
  </outline>
</glyph>
<glyph name="W" format="1">
  <advance width="800"/>
  <unicode hex="0057"/>
  <outline>
    <contour>
      <point x="215" y="0" type="curve"/>
      <point x="355" y="75" type="line"/>
      <point x="209.402303859" y="158.198683509"/>
      <point x="200" y="276.923076923"/>
      <point x="200" y="450" type="curve" smooth="yes"/>
      <point x="200" y="700" type="line"/>
      <point x="50" y="700" type="line"/>
      <point x="50" y="450" type="line" smooth="yes"/>
      <point x="50" y="281.25"/>
      <point x="70.0784952318" y="87.9880564664"/>
    </contour>
    <contour>
      <point x="585" y="0" type="line"/>
      <point x="729.921504768" y="87.9880564664"/>
      <point x="750" y="281.25"/>
      <point x="750" y="450" type="curve" smooth="yes"/>
      <point x="750" y="700" type="line"/>
      <point x="600" y="700" type="line"/>
      <point x="600" y="450" type="line" smooth="yes"/>
      <point x="600" y="276.923076923"/>
      <point x="590.597696141" y="158.198683509"/>
      <point x="445" y="75" type="curve"/>
      <point x="485" y="0" type="line"/>
    </contour>
    <contour>
      <point x="485" y="0" type="curve"/>
      <point x="625" y="75" type="line"/>
      <point x="484.306927163" y="158.373672792"/>
      <point x="475" y="276.923076923"/>
      <point x="475" y="450" type="curve" smooth="yes"/>
      <point x="475" y="700" type="line"/>
      <point x="325" y="700" type="line"/>
      <point x="325" y="450" type="line" smooth="yes"/>
      <point x="325" y="276.923076923"/>
      <point x="315.693072837" y="158.373672792"/>
      <point x="175" y="75" type="curve"/>
      <point x="215" y="0" type="line"/>
      <point x="315" y="0" type="line"/>
      <point x="355.853292914" y="46.6894776164"/>
      <point x="385" y="90"/>
      <point x="400" y="155" type="curve"/>
      <point x="415" y="90"/>
      <point x="444.146707086" y="46.6894776164"/>
    </contour>
  </outline>
</glyph>
<glyph name="bracketleft" format="1">
  <advance width="250"/>
  <unicode hex="005B"/>
  <outline>
    <contour>
      <point x="50" y="700" type="line"/>
      <point x="50" y="-200" type="line"/>
      <point x="250" y="-200" type="line"/>
      <point x="250" y="-75" type="line"/>
      <point x="200" y="-75" type="line"/>
      <point x="200" y="575" type="line" smooth="yes"/>
      <point x="250" y="575" type="line"/>
      <point x="250" y="700" type="line"/>
    </contour>
  </outline>
</glyph>
<glyph name="a" format="1">
  <advance width="600"/>
  <unicode hex="0061"/>
  <outline>
    <contour>
      <point x="50" y="345" type="curve"/>
      <point x="50" y="325" type="line"/>
      <point x="200" y="325" type="line"/>
      <point x="200" y="335" type="line"/>
      <point x="200" y="360"/>
      <point x="220" y="370"/>
      <point x="300" y="370" type="curve" smooth="yes"/>
      <point x="385" y="370"/>
      <point x="400" y="365"/>
      <point x="400" y="320" type="curve" smooth="yes"/>
      <point x="400" y="220" type="line"/>
      <point x="550" y="250" type="line"/>
      <point x="550" y="330" type="line"/>
      <point x="550" y="440"/>
      <point x="480" y="510"/>
      <point x="300" y="510" type="curve" smooth="yes"/>
      <point x="110" y="510"/>
      <point x="50" y="455"/>
    </contour>
    <contour>
      <point x="550" y="250" type="line"/>
      <point x="400" y="250" type="line"/>
      <point x="400" y="115" type="line"/>
      <point x="405" y="80" type="line"/>
      <point x="420" y="0" type="line"/>
      <point x="550" y="0" type="line"/>
    </contour>
    <contour>
      <point x="40" y="135" type="curve"/>
      <point x="40.0" y="28.3823529412"/>
      <point x="105.0" y="-10.0"/>
      <point x="225" y="-10" type="curve"/>
      <point x="340" y="-10"/>
      <point x="395" y="25"/>
      <point x="405" y="80" type="curve"/>
      <point x="400" y="150" type="line"/>
      <point x="400" y="135"/>
      <point x="375" y="120"/>
      <point x="260" y="120" type="curve"/>
      <point x="210" y="120"/>
      <point x="190" y="125"/>
      <point x="190" y="150" type="curve"/>
      <point x="190" y="175"/>
      <point x="210" y="180"/>
      <point x="260" y="180" type="curve"/>
      <point x="375" y="180"/>
      <point x="400" y="165"/>
      <point x="400" y="150" type="curve"/>
      <point x="405" y="215" type="line"/>
      <point x="396.37810984" y="258.109450801"/>
      <point x="340.0" y="285.0"/>
      <point x="225" y="285" type="curve"/>
      <point x="105.0" y="285.0"/>
      <point x="40.0" y="241.25"/>
    </contour>
    <contour>
      <point x="300.0" y="500.0" type="move" name="top"/>
    </contour>
  </outline>
</glyph>
<glyph name="g" format="1">
  <advance width="600"/>
  <unicode hex="0067"/>
  <outline>
    <contour>
      <point x="300" y="-60" type="curve" smooth="yes"/>
      <point x="205" y="-60"/>
      <point x="190" y="-50"/>
      <point x="190" y="-20" type="curve" smooth="yes"/>
      <point x="190" y="10"/>
      <point x="210" y="30"/>
      <point x="270" y="30" type="curve"/>
      <point x="325.0" y="30.0"/>
      <point x="380" y="40"/>
      <point x="400" y="65" type="curve"/>
      <point x="400" y="-10" type="line" smooth="yes"/>
      <point x="400" y="-50"/>
      <point x="380" y="-60"/>
    </contour>
    <contour>
      <point x="50" y="290" type="curve"/>
      <point x="50" y="210" type="line"/>
      <point x="50.0" y="160.0"/>
      <point x="75" y="115"/>
      <point x="125" y="90" type="curve"/>
      <point x="70" y="75"/>
      <point x="40" y="30"/>
      <point x="40" y="-35" type="curve" smooth="yes"/>
      <point x="40" y="-160"/>
      <point x="105" y="-210"/>
      <point x="300" y="-210" type="curve" smooth="yes"/>
      <point x="480" y="-210"/>
      <point x="550" y="-140"/>
      <point x="550" y="-10" type="curve"/>
      <point x="550" y="500" type="line"/>
      <point x="410" y="500" type="line"/>
      <point x="400" y="420" type="line"/>
      <point x="380" y="475"/>
      <point x="335" y="510"/>
      <point x="240" y="510" type="curve"/>
      <point x="120" y="510"/>
      <point x="50" y="440"/>
    </contour>
    <contour>
      <point x="200" y="240" type="curve"/>
      <point x="200" y="260" type="line"/>
      <point x="200" y="330"/>
      <point x="240" y="360"/>
      <point x="300" y="360" type="curve" smooth="yes"/>
      <point x="380" y="360"/>
      <point x="400" y="330"/>
      <point x="400" y="260" type="curve"/>
      <point x="400" y="240" type="line"/>
      <point x="400" y="160"/>
      <point x="380" y="140"/>
      <point x="300" y="140" type="curve" smooth="yes"/>
      <point x="240" y="140"/>
      <point x="200" y="170"/>
    </contour>
    <contour>
      <point x="300.0" y="300.0" type="move" name="top"/>
    </contour>
    <contour>
      <point x="900.0" y="500.0" type="move" name="top"/>
    </contour>
  </outline>
</glyph>
<glyph name="i" format="1">
  <advance width="250"/>
  <unicode hex="0069"/>
  <outline>
    <contour>
      <point x="50" y="0" type="line"/>
      <point x="200" y="0" type="line"/>
      <point x="200" y="500" type="line"/>
      <point x="50" y="500" type="line"/>
    </contour>
    <contour>
      <point x="50" y="550" type="line"/>
      <point x="200" y="550" type="line"/>
      <point x="200" y="700" type="line"/>
      <point x="50" y="700" type="line"/>
    </contour>
  </outline>
</glyph>
<glyph name="k" format="1">
  <advance width="600"/>
  <unicode hex="006B"/>
  <outline>
    <contour>
      <point x="50" y="0" type="line"/>
      <point x="200" y="0" type="line"/>
      <point x="200" y="700" type="line"/>
      <point x="50" y="700" type="line"/>
    </contour>
    <contour>
      <point x="130" y="175" type="line"/>
      <point x="300" y="175" type="line"/>
      <point x="300" y="325" type="line"/>
      <point x="130" y="325" type="line"/>
    </contour>
    <contour>
      <point x="405" y="240" type="line"/>
      <point x="505" y="260"/>
      <point x="530" y="335"/>
      <point x="540.0" y="425.0" type="curve" smooth="yes"/>
      <point x="550.0" y="500.0" type="line"/>
      <point x="400.0" y="500.0" type="line"/>
      <point x="390.0" y="425.0" type="line" smooth="yes"/>
      <point x="380.0" y="335.0"/>
      <point x="370.0" y="325.0"/>
      <point x="290.0" y="325.0" type="curve"/>
      <point x="300.0" y="175.0" type="line"/>
    </contour>
    <contour>
      <point x="300" y="325" type="line"/>
      <point x="290.0" y="175.0" type="line"/>
      <point x="370.0" y="175.0"/>
      <point x="380.0" y="165.0"/>
      <point x="390.0" y="75.0" type="curve" smooth="yes"/>
      <point x="400.0" y="0.0" type="line"/>
      <point x="550.0" y="0.0" type="line"/>
      <point x="540.0" y="75.0" type="line" smooth="yes"/>
      <point x="530" y="165"/>
      <point x="505" y="240"/>
      <point x="405" y="260" type="curve"/>
    </contour>
  </outline>
</glyph>
<glyph name="w" format="1">
  <advance width="800"/>
  <unicode hex="0077"/>
  <outline>
    <contour>
      <point x="215" y="0" type="curve"/>
      <point x="355" y="75" type="line"/>
      <point x="215" y="155"/>
      <point x="200" y="250"/>
      <point x="200" y="400" type="curve" smooth="yes"/>
      <point x="200" y="500" type="line"/>
      <point x="50" y="500" type="line"/>
      <point x="50" y="400" type="line" smooth="yes"/>
      <point x="50" y="250"/>
      <point x="75" y="85"/>
    </contour>
    <contour>
      <point x="585" y="0" type="line"/>
      <point x="725" y="85"/>
      <point x="750" y="250"/>
      <point x="750" y="400" type="curve" smooth="yes"/>
      <point x="750" y="500" type="line"/>
      <point x="600" y="500" type="line"/>
      <point x="600" y="400" type="line" smooth="yes"/>
      <point x="600" y="250"/>
      <point x="585" y="155"/>
      <point x="445" y="75" type="curve"/>
      <point x="485" y="0" type="line"/>
    </contour>
    <contour>
      <point x="485" y="0" type="curve"/>
      <point x="625" y="75" type="line"/>
      <point x="490" y="155"/>
      <point x="475" y="250"/>
      <point x="475" y="400" type="curve" smooth="yes"/>
      <point x="475" y="500" type="line"/>
      <point x="325" y="500" type="line"/>
      <point x="325" y="400" type="line" smooth="yes"/>
      <point x="325" y="250"/>
      <point x="310" y="155"/>
      <point x="175" y="75" type="curve"/>
      <point x="215" y="0" type="line"/>
      <point x="315" y="0" type="line"/>
      <point x="355.853292914" y="46.6894776164"/>
      <point x="385" y="90"/>
      <point x="400" y="155" type="curve"/>
      <point x="415" y="90"/>
      <point x="444.146707086" y="46.6894776164"/>
    </contour>
  </outline>
</glyph>
<glyph name="bar" format="1">
  <advance width="250"/>
  <unicode hex="007C"/>
  <outline>
    <contour>
      <point x="50" y="0" type="line"/>
      <point x="200" y="0" type="line"/>
      <point x="200" y="700" type="line"/>
      <point x="50" y="700" type="line"/>
    </contour>
  </outline>
</glyph>
<glyph name="cent" format="1">
  <advance width="600"/>
  <unicode hex="00A2"/>
  <outline>
    <contour>
      <point x="225" y="-50" type="line"/>
      <point x="375" y="-50" type="line"/>
      <point x="375" y="40" type="line"/>
      <point x="350.0" y="86.0" type="line"/>
      <point x="350.0" y="405.0" type="line"/>
      <point x="375" y="455" type="line"/>
      <point x="375" y="550" type="line"/>
      <point x="225" y="550" type="line"/>
      <point x="225" y="455" type="line"/>
      <point x="250.0" y="390.0" type="line"/>
      <point x="250.0" y="90.0" type="line"/>
      <point x="225" y="40" type="line"/>
    </contour>
    <contour>
      <point x="550" y="180" type="curve"/>
      <point x="550" y="210" type="line"/>
      <point x="400" y="210" type="line"/>
      <point x="400" y="180" type="line"/>
      <point x="400" y="150"/>
      <point x="380" y="140"/>
      <point x="300" y="140" type="curve" smooth="yes"/>
      <point x="220" y="140"/>
      <point x="200" y="160"/>
      <point x="200" y="240" type="curve" smooth="yes"/>
      <point x="200" y="250" type="line"/>
      <point x="50" y="250" type="line"/>
      <point x="50" y="190" type="line"/>
      <point x="50" y="60"/>
      <point x="120" y="-10"/>
      <point x="300" y="-10" type="curve" smooth="yes"/>
      <point x="490" y="-10"/>
      <point x="550" y="40"/>
    </contour>
    <contour>
      <point x="550" y="320" type="line"/>
      <point x="550" y="460"/>
      <point x="490" y="510"/>
      <point x="300" y="510" type="curve" smooth="yes"/>
      <point x="120" y="510"/>
      <point x="50" y="440"/>
      <point x="50" y="310" type="curve"/>
      <point x="50" y="250" type="line"/>
      <point x="200" y="250" type="line"/>
      <point x="200" y="260" type="line" smooth="yes"/>
      <point x="200" y="340"/>
      <point x="220" y="360"/>
      <point x="300" y="360" type="curve" smooth="yes"/>
      <point x="380" y="360"/>
      <point x="400" y="350"/>
      <point x="400" y="320" type="curve"/>
      <point x="400" y="290" type="line"/>
      <point x="550" y="290" type="line"/>
    </contour>
  </outline>
</glyph>
<glyph name="yen" format="1">
  <advance width="600"/>
  <unicode hex="00A5"/>
  <outline>
    <contour>
      <point x="565" y="175" type="line"/>
      <point x="565" y="300" type="line"/>
      <point x="495" y="300" type="line"/>
      <point x="420" y="285" type="line"/>
      <point x="460" y="305"/>
      <point x="480" y="345"/>
      <point x="490" y="375" type="curve"/>
      <point x="565" y="375" type="line"/>
      <point x="565" y="500" type="line"/>
      <point x="535" y="500" type="line"/>
      <point x="545" y="535"/>
      <point x="550" y="575"/>
      <point x="550" y="610" type="curve" smooth="yes"/>
      <point x="550" y="700" type="line"/>
      <point x="400" y="700" type="line"/>
      <point x="400" y="600" type="line" smooth="yes"/>
      <point x="400" y="485"/>
      <point x="375" y="415"/>
      <point x="300" y="345" type="curve"/>
      <point x="225" y="415"/>
      <point x="200" y="485"/>
      <point x="200" y="600" type="curve" smooth="yes"/>
      <point x="200" y="700" type="line"/>
      <point x="50" y="700" type="line"/>
      <point x="50" y="610" type="line" smooth="yes"/>
      <point x="50" y="575"/>
      <point x="55" y="535"/>
      <point x="65" y="500" type="curve"/>
      <point x="35" y="500" type="line"/>
      <point x="35" y="375" type="line"/>
      <point x="110" y="375" type="line"/>
      <point x="120" y="345"/>
      <point x="140" y="305"/>
      <point x="180" y="285" type="curve"/>
      <point x="105" y="300" type="line"/>
      <point x="35" y="300" type="line"/>
      <point x="35" y="175" type="line"/>
      <point x="225" y="175" type="line"/>
      <point x="225" y="0" type="line"/>
      <point x="375" y="0" type="line"/>
      <point x="375" y="175" type="line"/>
    </contour>
    <contour>
      <point x="300.0" y="650.0" type="move" name="top"/>
    </contour>
    <contour>
      <point x="300" y="650" type="move" name="top"/>
    </contour>
  </outline>
</glyph>
<glyph name="section" format="1">
  <advance width="600"/>
  <unicode hex="00A7"/>
  <outline>
    <contour>
      <point x="300" y="305" type="curve" smooth="yes"/>
      <point x="200" y="305"/>
      <point x="190" y="325"/>
      <point x="190" y="350" type="curve"/>
      <point x="190.0" y="375.0"/>
      <point x="200" y="395"/>
      <point x="300" y="395" type="curve" smooth="yes"/>
      <point x="405" y="395"/>
      <point x="410.0" y="375.0"/>
      <point x="410" y="350" type="curve"/>
      <point x="410" y="330"/>
      <point x="400" y="305"/>
    </contour>
    <contour>
      <point x="300" y="-10" type="curve" smooth="yes"/>
      <point x="480" y="-10"/>
      <point x="560" y="50"/>
      <point x="560" y="150" type="curve"/>
      <point x="560" y="205"/>
      <point x="545" y="245"/>
      <point x="495" y="270" type="curve"/>
      <point x="545" y="285"/>
      <point x="560" y="315"/>
      <point x="560" y="365" type="curve" smooth="yes"/>
      <point x="560" y="455"/>
      <point x="500" y="490"/>
      <point x="300" y="500" type="curve"/>
      <point x="200" y="505"/>
      <point x="190" y="515"/>
      <point x="190" y="535" type="curve" smooth="yes"/>
      <point x="190" y="555"/>
      <point x="210" y="560"/>
      <point x="300" y="560" type="curve" smooth="yes"/>
      <point x="380" y="560"/>
      <point x="400" y="555"/>
      <point x="400" y="540" type="curve"/>
      <point x="400" y="525" type="line"/>
      <point x="550" y="525" type="line"/>
      <point x="550" y="570" type="line"/>
      <point x="550" y="660"/>
      <point x="490" y="710"/>
      <point x="300" y="710" type="curve" smooth="yes"/>
      <point x="120" y="710"/>
      <point x="40" y="650"/>
      <point x="40" y="550" type="curve"/>
      <point x="40" y="495"/>
      <point x="55" y="455"/>
      <point x="105" y="430" type="curve"/>
      <point x="55" y="415"/>
      <point x="40" y="385"/>
      <point x="40" y="335" type="curve" smooth="yes"/>
      <point x="40" y="245"/>
      <point x="100" y="210"/>
      <point x="300" y="200" type="curve"/>
      <point x="400" y="195"/>
      <point x="410" y="185"/>
      <point x="410" y="165" type="curve" smooth="yes"/>
      <point x="410" y="145"/>
      <point x="390" y="140"/>
      <point x="300" y="140" type="curve" smooth="yes"/>
      <point x="220" y="140"/>
      <point x="200" y="145"/>
      <point x="200" y="160" type="curve"/>
      <point x="200" y="175" type="line"/>
      <point x="50" y="175" type="line"/>
      <point x="50" y="130" type="line"/>
      <point x="50" y="40"/>
      <point x="110" y="-10"/>
    </contour>
  </outline>
</glyph>
<glyph name="copyright" format="1">
  <advance width="800"/>
  <unicode hex="00A9"/>
  <outline>
    <contour>
      <point x="430" y="700" type="curve" smooth="yes"/>
      <point x="400" y="700" type="line"/>
      <point x="400" y="580" type="line"/>
      <point x="585" y="580"/>
      <point x="630" y="505"/>
      <point x="630" y="400" type="curve" smooth="yes"/>
      <point x="630" y="350" type="line"/>
      <point x="750" y="350" type="line"/>
      <point x="750" y="430" type="line"/>
      <point x="750" y="590"/>
      <point x="640" y="700"/>
    </contour>
    <contour>
      <point x="430" y="0" type="line" smooth="yes"/>
      <point x="640" y="0"/>
      <point x="750" y="110"/>
      <point x="750" y="270" type="curve"/>
      <point x="750" y="350" type="line"/>
      <point x="630" y="350" type="line"/>
      <point x="630" y="300" type="line" smooth="yes"/>
      <point x="630" y="185"/>
      <point x="585" y="120"/>
      <point x="400" y="120" type="curve"/>
      <point x="400" y="0" type="line"/>
    </contour>
    <contour>
      <point x="570" y="380" type="line"/>
      <point x="570" y="485"/>
      <point x="515" y="530"/>
      <point x="400" y="530" type="curve" smooth="yes"/>
      <point x="285" y="530"/>
      <point x="220" y="490"/>
      <point x="220" y="360" type="curve"/>
      <point x="220" y="350" type="line"/>
      <point x="340" y="350" type="line"/>
      <point x="340" y="360" type="line" smooth="yes"/>
      <point x="340" y="400"/>
      <point x="360" y="410"/>
      <point x="400" y="410" type="curve" smooth="yes"/>
      <point x="430" y="410"/>
      <point x="450" y="400"/>
      <point x="450" y="380" type="curve"/>
      <point x="450" y="370" type="line"/>
      <point x="570" y="370" type="line"/>
    </contour>
    <contour>
      <point x="570" y="320" type="curve"/>
      <point x="570" y="330" type="line"/>
      <point x="450" y="330" type="line"/>
      <point x="450" y="320" type="line"/>
      <point x="450" y="300"/>
      <point x="430" y="290"/>
      <point x="400" y="290" type="curve" smooth="yes"/>
      <point x="360" y="290"/>
      <point x="340" y="300"/>
      <point x="340" y="340" type="curve" smooth="yes"/>
      <point x="340" y="350" type="line"/>
      <point x="220" y="350" type="line"/>
      <point x="220" y="340" type="line"/>
      <point x="220" y="210"/>
      <point x="285" y="170"/>
      <point x="400" y="170" type="curve" smooth="yes"/>
      <point x="515" y="170"/>
      <point x="570" y="215"/>
    </contour>
    <contour>
      <point x="370" y="700" type="line" smooth="yes"/>
      <point x="160" y="700"/>
      <point x="50" y="590"/>
      <point x="50" y="430" type="curve"/>
      <point x="50" y="350" type="line"/>
      <point x="170" y="350" type="line"/>
      <point x="170" y="400" type="line" smooth="yes"/>
      <point x="170" y="515"/>
      <point x="215" y="580"/>
      <point x="400" y="580" type="curve"/>
      <point x="400" y="700" type="line"/>
    </contour>
    <contour>
      <point x="370" y="0" type="curve" smooth="yes"/>
      <point x="400" y="0" type="line"/>
      <point x="400" y="120" type="line"/>
      <point x="215" y="120"/>
      <point x="170" y="185"/>
      <point x="170" y="300" type="curve" smooth="yes"/>
      <point x="170" y="350" type="line"/>
      <point x="50" y="350" type="line"/>
      <point x="50" y="270" type="line"/>
      <point x="50" y="110"/>
      <point x="160" y="0"/>
    </contour>
    <contour>
      <point x="300.0" y="650.0" type="move" name="top"/>
    </contour>
  </outline>
</glyph>
<glyph name="ordfeminine" format="1">
  <advance width="400"/>
  <unicode hex="00AA"/>
  <outline>
    <contour>
      <point x="240" y="560" type="curve" smooth="yes"/>
      <point x="240" y="540" type="line" smooth="yes"/>
      <point x="240.0" y="515.0"/>
      <point x="226.666666667" y="500.0"/>
      <point x="200" y="500" type="curve"/>
      <point x="164.285714286" y="500.0"/>
      <point x="150.0" y="515.0"/>
      <point x="150" y="550" type="curve" smooth="yes"/>
      <point x="150.0" y="585.0"/>
      <point x="164.285714286" y="600.0"/>
      <point x="200" y="600" type="curve"/>
      <point x="226.666666667" y="600.0"/>
      <point x="240.0" y="585.0"/>
    </contour>
    <contour>
      <point x="240" y="400" type="line"/>
      <point x="350" y="400" type="line"/>
      <point x="350" y="700" type="line"/>
      <point x="240" y="700" type="line"/>
      <point x="240" y="660" type="line"/>
      <point x="230" y="660" type="line"/>
      <point x="219.333333333" y="690.0"/>
      <point x="198.0" y="710.0"/>
      <point x="150" y="710" type="curve"/>
      <point x="87.8260869565" y="710.0"/>
      <point x="40.0" y="660.0"/>
      <point x="40" y="550" type="curve"/>
      <point x="40.0" y="440.0"/>
      <point x="87.8260869565" y="390.0"/>
      <point x="150" y="390" type="curve"/>
      <point x="198.0" y="390.0"/>
      <point x="218.571428571" y="410.0"/>
      <point x="230" y="440" type="curve"/>
      <point x="230" y="440"/>
      <point x="240" y="440"/>
      <point x="240" y="440" type="curve"/>
    </contour>
    <contour>
      <point x="50" y="200" type="line"/>
      <point x="350" y="200" type="line"/>
      <point x="350" y="350" type="line"/>
      <point x="50" y="350" type="line"/>
    </contour>
  </outline>
</glyph>
<glyph name="registered" format="1">
  <advance width="800"/>
  <unicode hex="00AE"/>
  <outline>
    <contour>
      <point x="350" y="190" type="line"/>
      <point x="350" y="510" type="line"/>
      <point x="240" y="510" type="line"/>
      <point x="240" y="190" type="line"/>
    </contour>
    <contour>
      <point x="440" y="370" type="curve"/>
      <point x="440.0" y="338.888888889"/>
      <point x="430.0" y="330.0"/>
      <point x="390" y="330" type="curve"/>
      <point x="340" y="330" type="line"/>
      <point x="330" y="245" type="line"/>
      <point x="385" y="245" type="line"/>
      <point x="420.0" y="245.0"/>
      <point x="440.0" y="232.777777778"/>
      <point x="450" y="190" type="curve"/>
      <point x="560" y="190" type="line"/>
      <point x="560.0" y="240.625"/>
      <point x="535.0" y="274.375"/>
      <point x="480" y="280" type="curve"/>
      <point x="480" y="290" type="line"/>
      <point x="520" y="300"/>
      <point x="560" y="330"/>
      <point x="560" y="390" type="curve"/>
      <point x="560" y="455"/>
      <point x="510" y="510"/>
      <point x="410" y="510" type="curve"/>
      <point x="310" y="510" type="line"/>
      <point x="310" y="410" type="line"/>
      <point x="390" y="410" type="line"/>
      <point x="430.0" y="410.0"/>
      <point x="440.0" y="404.285714286"/>
    </contour>
    <contour>
      <point x="430" y="700" type="curve" smooth="yes"/>
      <point x="400" y="700" type="line"/>
      <point x="400" y="580" type="line"/>
      <point x="585" y="580"/>
      <point x="630" y="505"/>
      <point x="630" y="400" type="curve" smooth="yes"/>
      <point x="630" y="350" type="line"/>
      <point x="750" y="350" type="line"/>
      <point x="750" y="430" type="line"/>
      <point x="750" y="590"/>
      <point x="640" y="700"/>
    </contour>
    <contour>
      <point x="430" y="0" type="line" smooth="yes"/>
      <point x="640" y="0"/>
      <point x="750" y="110"/>
      <point x="750" y="270" type="curve"/>
      <point x="750" y="350" type="line"/>
      <point x="630" y="350" type="line"/>
      <point x="630" y="300" type="line" smooth="yes"/>
      <point x="630" y="185"/>
      <point x="585" y="120"/>
      <point x="400" y="120" type="curve"/>
      <point x="400" y="0" type="line"/>
    </contour>
    <contour>
      <point x="370" y="700" type="line" smooth="yes"/>
      <point x="160" y="700"/>
      <point x="50" y="590"/>
      <point x="50" y="430" type="curve"/>
      <point x="50" y="350" type="line"/>
      <point x="170" y="350" type="line"/>
      <point x="170" y="400" type="line" smooth="yes"/>
      <point x="170" y="515"/>
      <point x="215" y="580"/>
      <point x="400" y="580" type="curve"/>
      <point x="400" y="700" type="line"/>
    </contour>
    <contour>
      <point x="370" y="0" type="curve" smooth="yes"/>
      <point x="400" y="0" type="line"/>
      <point x="400" y="120" type="line"/>
      <point x="215" y="120"/>
      <point x="170" y="185"/>
      <point x="170" y="300" type="curve" smooth="yes"/>
      <point x="170" y="350" type="line"/>
      <point x="50" y="350" type="line"/>
      <point x="50" y="270" type="line"/>
      <point x="50" y="110"/>
      <point x="160" y="0"/>
    </contour>
    <contour>
      <point x="300.0" y="650.0" type="move" name="top"/>
    </contour>
  </outline>
</glyph>
<glyph name="degree" format="1">
  <advance width="400"/>
  <unicode hex="00B0"/>
  <outline>
    <contour>
      <point x="250" y="550" type="curve"/>
      <point x="250" y="515"/>
      <point x="235" y="500"/>
      <point x="200" y="500" type="curve"/>
      <point x="165" y="500"/>
      <point x="150" y="515"/>
      <point x="150" y="550" type="curve"/>
      <point x="150" y="585"/>
      <point x="165" y="600"/>
      <point x="200" y="600" type="curve"/>
      <point x="235" y="600"/>
      <point x="250" y="585"/>
    </contour>
    <contour>
      <point x="360" y="550" type="curve"/>
      <point x="360" y="660"/>
      <point x="300" y="710"/>
      <point x="200" y="710" type="curve"/>
      <point x="100" y="710"/>
      <point x="40" y="660"/>
      <point x="40" y="550" type="curve"/>
      <point x="40" y="440"/>
      <point x="100" y="390"/>
      <point x="200" y="390" type="curve"/>
      <point x="300" y="390"/>
      <point x="360" y="440"/>
    </contour>
  </outline>
</glyph>
<glyph name="ordmasculine" format="1">
  <advance width="400"/>
  <unicode hex="00BA"/>
  <outline>
    <contour>
      <point x="50" y="200" type="line"/>
      <point x="350" y="200" type="line"/>
      <point x="350" y="350" type="line"/>
      <point x="50" y="350" type="line"/>
    </contour>
    <component base="degree"/>
  </outline>
</glyph>
<glyph name="Thorn" format="1">
  <advance width="600"/>
  <unicode hex="00DE"/>
  <outline>
    <contour>
      <point x="330" y="575" type="curve" smooth="yes"/>
      <point x="110" y="575" type="line"/>
      <point x="110" y="425" type="line"/>
      <point x="300" y="425" type="line"/>
      <point x="385" y="425"/>
      <point x="400" y="405"/>
      <point x="400" y="360" type="curve" smooth="yes"/>
      <point x="400" y="350" type="line"/>
      <point x="550" y="350" type="line"/>
      <point x="550" y="380" type="line"/>
      <point x="550" y="510"/>
      <point x="470" y="575"/>
    </contour>
    <contour>
      <point x="200" y="0" type="line"/>
      <point x="200" y="700" type="line"/>
      <point x="50" y="700" type="line"/>
      <point x="50" y="0" type="line"/>
    </contour>
    <contour>
      <point x="330" y="125" type="line" smooth="yes"/>
      <point x="470" y="125"/>
      <point x="550" y="190"/>
      <point x="550" y="320" type="curve"/>
      <point x="550" y="350" type="line"/>
      <point x="400" y="350" type="line"/>
      <point x="400" y="340" type="line" smooth="yes"/>
      <point x="400" y="295"/>
      <point x="385" y="275"/>
      <point x="300" y="275" type="curve"/>
      <point x="110" y="275" type="line"/>
      <point x="110" y="125" type="line"/>
    </contour>
  </outline>
</glyph>
<glyph name="germandbls" format="1">
  <advance width="850"/>
  <unicode hex="00DF"/>
  <outline>
    <contour>
      <point x="400" y="700" type="line"/>
      <point x="200" y="700" type="line"/>
      <point x="110" y="700"/>
      <point x="50" y="640"/>
      <point x="50" y="550" type="curve"/>
      <point x="50" y="0" type="line"/>
      <point x="200" y="0" type="line"/>
      <point x="200" y="500" type="line" smooth="yes"/>
      <point x="200" y="540"/>
      <point x="220" y="550"/>
      <point x="250" y="550" type="curve"/>
      <point x="400" y="550" type="line"/>
    </contour>
    <contour>
      <point x="290" y="350" type="curve"/>
      <point x="290" y="245"/>
      <point x="350" y="205"/>
      <point x="550" y="195" type="curve"/>
      <point x="650" y="190"/>
      <point x="660" y="185"/>
      <point x="660" y="165" type="curve" smooth="yes"/>
      <point x="660" y="145"/>
      <point x="640" y="140"/>
      <point x="550" y="140" type="curve" smooth="yes"/>
      <point x="470" y="140"/>
      <point x="450" y="145"/>
      <point x="450" y="160" type="curve"/>
      <point x="450" y="175" type="line"/>
      <point x="300" y="175" type="line"/>
      <point x="300" y="130" type="line"/>
      <point x="300" y="40"/>
      <point x="360" y="-10"/>
      <point x="550" y="-10" type="curve" smooth="yes"/>
      <point x="730" y="-10"/>
      <point x="810" y="50"/>
      <point x="810" y="150" type="curve"/>
      <point x="810" y="255"/>
      <point x="750" y="295"/>
      <point x="550" y="305" type="curve"/>
      <point x="450.049271706" y="309.997536415"/>
      <point x="440.0" y="324.444444444"/>
      <point x="440" y="340" type="curve"/>
      <point x="440.0" y="355.555555556"/>
      <point x="450" y="365"/>
      <point x="525" y="375" type="curve" smooth="yes"/>
      <point x="610" y="385"/>
      <point x="660.0" y="428.225806452"/>
      <point x="660" y="540" type="curve"/>
      <point x="660" y="645"/>
      <point x="585" y="700"/>
      <point x="400" y="700" type="curve"/>
      <point x="400" y="550" type="line"/>
      <point x="490" y="550"/>
      <point x="510" y="545"/>
      <point x="510" y="525" type="curve" smooth="yes"/>
      <point x="510.0" y="505.0"/>
      <point x="495" y="505"/>
      <point x="425" y="495" type="curve" smooth="yes"/>
      <point x="335" y="480"/>
      <point x="290.0" y="450.0"/>
    </contour>
  </outline>
</glyph>
<glyph name="eth" format="1">
  <advance width="600"/>
  <unicode hex="00F0"/>
  <outline>
    <contour>
      <point x="300" y="140" type="curve"/>
      <point x="210.0" y="140.0"/>
      <point x="195" y="163.333333333"/>
      <point x="195" y="210" type="curve" smooth="yes"/>
      <point x="195" y="250" type="line"/>
      <point x="45" y="250" type="line"/>
      <point x="45" y="210" type="line"/>
      <point x="45" y="80"/>
      <point x="105" y="-10"/>
      <point x="300" y="-10" type="curve"/>
      <point x="495" y="-10"/>
      <point x="555" y="80"/>
      <point x="555" y="260" type="curve" smooth="yes"/>
      <point x="555" y="435"/>
      <point x="480" y="565"/>
      <point x="300" y="700" type="curve"/>
      <point x="125" y="700" type="line"/>
      <point x="125" y="685" type="line"/>
      <point x="335.819172167" y="519.763351545"/>
      <point x="405.0" y="460.0"/>
      <point x="405" y="260" type="curve" smooth="yes"/>
      <point x="405.0" y="168.235294118"/>
      <point x="390.0" y="140.0"/>
    </contour>
    <contour>
      <point x="405" y="410" type="line"/>
      <point x="370" y="460"/>
      <point x="335" y="510"/>
      <point x="225" y="510" type="curve" smooth="yes"/>
      <point x="115" y="510"/>
      <point x="45" y="440"/>
      <point x="45" y="290" type="curve"/>
      <point x="45" y="250" type="line"/>
      <point x="195" y="250" type="line"/>
      <point x="195" y="260" type="line"/>
      <point x="195.0" y="340.0"/>
      <point x="220.0" y="360.0"/>
      <point x="295" y="360" type="curve" smooth="yes"/>
      <point x="390.0" y="360.0"/>
      <point x="405.0" y="326.666666667"/>
      <point x="405" y="260" type="curve"/>
    </contour>
    <contour>
      <point x="125" y="515" type="line"/>
      <point x="305" y="570" type="line"/>
      <point x="475" y="605" type="line"/>
      <point x="475" y="710" type="line"/>
      <point x="305" y="660" type="line"/>
      <point x="125" y="620" type="line"/>
    </contour>
    <contour>
      <point x="900.0" y="500.0" type="move" name="top"/>
    </contour>
  </outline>
</glyph>
<glyph name="thorn" format="1">
  <advance width="600"/>
  <unicode hex="00FE"/>
  <outline>
    <contour>
      <point x="50" y="700" type="line"/>
      <point x="50" y="-200" type="line"/>
      <point x="200" y="-200" type="line"/>
      <point x="200" y="420" type="line"/>
      <point x="200" y="700" type="line"/>
    </contour>
    <contour>
      <point x="200" y="420" type="curve"/>
      <point x="200" y="260" type="line"/>
      <point x="200" y="330"/>
      <point x="220" y="360"/>
      <point x="300" y="360" type="curve" smooth="yes"/>
      <point x="360" y="360"/>
      <point x="400" y="330"/>
      <point x="400" y="260" type="curve"/>
      <point x="400" y="250" type="line"/>
      <point x="550" y="250" type="line"/>
      <point x="550" y="290" type="line"/>
      <point x="550" y="440"/>
      <point x="480" y="510"/>
      <point x="360" y="510" type="curve"/>
      <point x="265" y="510"/>
      <point x="220" y="475"/>
    </contour>
    <contour>
      <point x="220" y="25"/>
      <point x="265" y="-10"/>
      <point x="360" y="-10" type="curve"/>
      <point x="480" y="-10"/>
      <point x="550" y="60"/>
      <point x="550" y="210" type="curve"/>
      <point x="550" y="250" type="line"/>
      <point x="400" y="250" type="line"/>
      <point x="400" y="240" type="line"/>
      <point x="400" y="170"/>
      <point x="360" y="140"/>
      <point x="300" y="140" type="curve" smooth="yes"/>
      <point x="220" y="140"/>
      <point x="200" y="170"/>
      <point x="200" y="240" type="curve"/>
      <point x="200" y="80" type="line"/>
    </contour>
  </outline>
</glyph>
<glyph name="dotlessi" format="1">
  <advance width="250"/>
  <unicode hex="0131"/>
  <outline>
    <contour>
      <point x="50" y="0" type="line"/>
      <point x="200" y="0" type="line"/>
      <point x="200" y="500" type="line"/>
      <point x="50" y="500" type="line"/>
    </contour>
    <contour>
      <point x="125" y="500" type="move" name="top"/>
    </contour>
  </outline>
</glyph>
<glyph name="ij" format="1">
  <advance width="500"/>
  <unicode hex="0133"/>
  <outline>
    <contour>
      <point x="250" y="-210" type="curve" smooth="yes"/>
      <point x="380" y="-210"/>
      <point x="450" y="-150"/>
      <point x="450" y="-35" type="curve" smooth="yes"/>
      <point x="450" y="500" type="line"/>
      <point x="300" y="500" type="line"/>
      <point x="300" y="-35" type="line" smooth="yes"/>
      <point x="300" y="-75"/>
      <point x="280" y="-85"/>
      <point x="250" y="-85" type="curve" smooth="yes"/>
      <point x="220" y="-85"/>
      <point x="200" y="-78"/>
      <point x="200" y="-53" type="curve"/>
      <point x="200" y="-39" type="line"/>
      <point x="50" y="-39" type="line"/>
      <point x="50" y="-58" type="line"/>
      <point x="50" y="-155"/>
      <point x="110" y="-210"/>
    </contour>
    <contour>
      <point x="300" y="550" type="line"/>
      <point x="450" y="550" type="line"/>
      <point x="450" y="700" type="line"/>
      <point x="300" y="700" type="line"/>
    </contour>
    <component base="i"/>
  </outline>
</glyph>
<glyph name="lslash" format="1">
  <advance width="250"/>
  <unicode hex="0142"/>
  <outline>
    <contour>
      <point x="0" y="270" type="line"/>
      <point x="250" y="350" type="line"/>
      <point x="250" y="480" type="line"/>
      <point x="0" y="400" type="line"/>
    </contour>
    <component base="l"/>
  </outline>
</glyph>
<glyph name="OE" format="1">
  <advance width="950"/>
  <unicode hex="0152"/>
  <outline>
    <contour>
      <point x="500" y="0" type="line"/>
      <point x="550" y="0" type="line"/>
      <point x="550" y="700" type="line"/>
      <point x="500" y="700" type="line"/>
      <point x="400" y="575" type="line"/>
      <point x="400" y="125" type="line"/>
    </contour>
    <contour>
      <point x="270" y="700" type="line"/>
      <point x="130" y="700"/>
      <point x="50" y="630"/>
      <point x="50" y="455" type="curve"/>
      <point x="50" y="350" type="line"/>
      <point x="200" y="350" type="line"/>
      <point x="200" y="460" type="line" smooth="yes"/>
      <point x="200" y="530"/>
      <point x="220" y="550"/>
      <point x="300" y="550" type="curve"/>
      <point x="300" y="700" type="line"/>
    </contour>
    <contour>
      <point x="500" y="0" type="line"/>
      <point x="900" y="0" type="line"/>
      <point x="900" y="150" type="line"/>
      <point x="500" y="150" type="line"/>
    </contour>
    <contour>
      <point x="500" y="550" type="line"/>
      <point x="900" y="550" type="line"/>
      <point x="900" y="700" type="line"/>
      <point x="500" y="700" type="line"/>
    </contour>
    <contour>
      <point x="450" y="250" type="line"/>
      <point x="850" y="250" type="line"/>
      <point x="850" y="400" type="line"/>
      <point x="450" y="400" type="line"/>
    </contour>
    <contour>
      <point x="300" y="700" type="curve"/>
      <point x="300" y="550" type="line"/>
      <point x="380" y="550"/>
      <point x="400" y="530"/>
      <point x="400" y="460" type="curve" smooth="yes"/>
      <point x="400" y="350" type="line"/>
      <point x="500" y="350" type="line"/>
      <point x="500" y="455" type="line"/>
      <point x="500" y="630"/>
      <point x="430" y="700"/>
    </contour>
    <contour>
      <point x="270" y="0" type="curve"/>
      <point x="300" y="0" type="line"/>
      <point x="300" y="150" type="line"/>
      <point x="220" y="150"/>
      <point x="200" y="170"/>
      <point x="200" y="240" type="curve" smooth="yes"/>
      <point x="200" y="350" type="line"/>
      <point x="50" y="350" type="line"/>
      <point x="50" y="245" type="line"/>
      <point x="50" y="70"/>
      <point x="130" y="0"/>
    </contour>
    <contour>
      <point x="300" y="0" type="line"/>
      <point x="430" y="0"/>
      <point x="500" y="70"/>
      <point x="500" y="245" type="curve"/>
      <point x="500" y="350" type="line"/>
      <point x="400" y="350" type="line"/>
      <point x="400" y="240" type="line" smooth="yes"/>
      <point x="400" y="170"/>
      <point x="380" y="150"/>
      <point x="300" y="150" type="curve"/>
    </contour>
    <contour>
      <point x="300.0" y="650.0" type="move" name="top"/>
    </contour>
    <contour>
      <point x="665.0" y="650.0" type="move" name="top"/>
    </contour>
  </outline>
</glyph>
<glyph name="dotaccent" format="1">
  <advance width="250"/>
  <unicode hex="02D9"/>
  <outline>
    <contour>
      <point x="205" y="650" type="curve"/>
      <point x="205.0" y="687.8125"/>
      <point x="175.0" y="705.0"/>
      <point x="125" y="705" type="curve"/>
      <point x="75.0" y="705.0"/>
      <point x="45.0" y="687.8125"/>
      <point x="45" y="650" type="curve"/>
      <point x="45.0" y="613.333333333"/>
      <point x="75.0" y="595.0"/>
      <point x="125" y="595" type="curve"/>
      <point x="175.0" y="595.0"/>
      <point x="205.0" y="613.333333333"/>
    </contour>
  </outline>
</glyph>
<glyph name="quoteleft" format="1">
  <advance width="250"/>
  <unicode hex="2018"/>
  <outline>
    <contour>
      <point x="200" y="550" type="line"/>
      <point x="200" y="700" type="line"/>
      <point x="50" y="700" type="line"/>
      <point x="50" y="600" type="line"/>
      <point x="95" y="450" type="line"/>
      <point x="170" y="450" type="line"/>
      <point x="170" y="550" type="line"/>
    </contour>
  </outline>
</glyph>
<glyph name="quoteright" format="1">
  <advance width="250"/>
  <unicode hex="2019"/>
  <outline>
    <contour>
      <point x="50" y="550" type="line"/>
      <point x="80" y="550" type="line"/>
      <point x="80" y="450" type="line"/>
      <point x="155" y="450" type="line"/>
      <point x="200" y="600" type="line"/>
      <point x="200" y="700" type="line"/>
      <point x="50" y="700" type="line"/>
    </contour>
  </outline>
</glyph>
<glyph name="quotesinglbase" format="1">
  <advance width="250"/>
  <unicode hex="201A"/>
  <outline>
    <contour>
      <point x="50" y="-100" type="line"/>
      <point x="80" y="-100" type="line"/>
      <point x="80" y="-200" type="line"/>
      <point x="155" y="-200" type="line"/>
      <point x="200" y="-50" type="line"/>
      <point x="200" y="50" type="line"/>
      <point x="50" y="50" type="line"/>
    </contour>
  </outline>
</glyph>
<glyph name="quotedblleft" format="1">
  <advance width="450"/>
  <unicode hex="201C"/>
  <outline>
    <contour>
      <point x="200" y="550" type="line"/>
      <point x="200" y="700" type="line"/>
      <point x="50" y="700" type="line"/>
      <point x="50" y="600" type="line"/>
      <point x="95" y="450" type="line"/>
      <point x="170" y="450" type="line"/>
      <point x="170" y="550" type="line"/>
    </contour>
    <contour>
      <point x="400" y="550" type="line"/>
      <point x="400" y="700" type="line"/>
      <point x="250" y="700" type="line"/>
      <point x="250" y="600" type="line"/>
      <point x="295" y="450" type="line"/>
      <point x="370" y="450" type="line"/>
      <point x="370" y="550" type="line"/>
    </contour>
  </outline>
</glyph>
<glyph name="quotedblright" format="1">
  <advance width="450"/>
  <unicode hex="201D"/>
  <outline>
    <contour>
      <point x="250" y="550" type="line"/>
      <point x="280" y="550" type="line"/>
      <point x="280" y="450" type="line"/>
      <point x="355" y="450" type="line"/>
      <point x="400" y="600" type="line"/>
      <point x="400" y="700" type="line"/>
      <point x="250" y="700" type="line"/>
    </contour>
    <contour>
      <point x="50" y="550" type="line"/>
      <point x="80" y="550" type="line"/>
      <point x="80" y="450" type="line"/>
      <point x="155" y="450" type="line"/>
      <point x="200" y="600" type="line"/>
      <point x="200" y="700" type="line"/>
      <point x="50" y="700" type="line"/>
    </contour>
  </outline>
</glyph>
<glyph name="quotedblbase" format="1">
  <advance width="450"/>
  <unicode hex="201E"/>
  <outline>
    <contour>
      <point x="250" y="-100" type="line"/>
      <point x="280" y="-100" type="line"/>
      <point x="280" y="-200" type="line"/>
      <point x="355" y="-200" type="line"/>
      <point x="400" y="-50" type="line"/>
      <point x="400" y="50" type="line"/>
      <point x="250" y="50" type="line"/>
    </contour>
    <contour>
      <point x="50" y="-100" type="line"/>
      <point x="80" y="-100" type="line"/>
      <point x="80" y="-200" type="line"/>
      <point x="155" y="-200" type="line"/>
      <point x="200" y="-50" type="line"/>
      <point x="200" y="50" type="line"/>
      <point x="50" y="50" type="line"/>
    </contour>
  </outline>
</glyph>
<glyph name="dagger" format="1">
  <advance width="600"/>
  <unicode hex="2020"/>
  <outline>
    <contour>
      <point x="225" y="-100" type="line"/>
      <point x="375" y="-100" type="line"/>
      <point x="375" y="275" type="line"/>
      <point x="355" y="425" type="line"/>
      <point x="375" y="575" type="line"/>
      <point x="375" y="700" type="line"/>
      <point x="225" y="700" type="line"/>
      <point x="225" y="575" type="line"/>
      <point x="245" y="425" type="line"/>
      <point x="225" y="275" type="line"/>
    </contour>
    <contour>
      <point x="25" y="350" type="line"/>
      <point x="150" y="350" type="line"/>
      <point x="300" y="365" type="line"/>
      <point x="450" y="350" type="line"/>
      <point x="575" y="350" type="line"/>
      <point x="575" y="500" type="line"/>
      <point x="450" y="500" type="line"/>
      <point x="300" y="480" type="line"/>
      <point x="150" y="500" type="line"/>
      <point x="25" y="500" type="line"/>
    </contour>
  </outline>
</glyph>
<glyph name="daggerdbl" format="1">
  <advance width="600"/>
  <unicode hex="2021"/>
  <outline>
    <contour>
      <point x="225" y="250" type="line"/>
      <point x="375" y="250" type="line"/>
      <point x="375" y="275" type="line"/>
      <point x="355" y="425" type="line"/>
      <point x="375" y="575" type="line"/>
      <point x="375" y="700" type="line"/>
      <point x="225" y="700" type="line"/>
      <point x="225" y="575" type="line"/>
      <point x="245" y="425" type="line"/>
      <point x="225" y="275" type="line"/>
    </contour>
    <contour>
      <point x="25" y="350" type="line"/>
      <point x="150" y="350" type="line"/>
      <point x="300" y="365" type="line"/>
      <point x="450" y="350" type="line"/>
      <point x="575" y="350" type="line"/>
      <point x="575" y="500" type="line"/>
      <point x="450" y="500" type="line"/>
      <point x="300" y="480" type="line"/>
      <point x="150" y="500" type="line"/>
      <point x="25" y="500" type="line"/>
    </contour>
    <contour>
      <point x="225" y="250" type="line"/>
      <point x="225" y="225" type="line"/>
      <point x="245" y="75" type="line"/>
      <point x="225" y="-75" type="line"/>
      <point x="225" y="-200" type="line"/>
      <point x="375" y="-200" type="line"/>
      <point x="375" y="-75" type="line"/>
      <point x="355" y="75" type="line"/>
      <point x="375" y="225" type="line"/>
      <point x="375" y="250" type="line"/>
    </contour>
    <contour>
      <point x="25" y="150" type="line"/>
      <point x="25" y="0" type="line"/>
      <point x="150" y="0" type="line"/>
      <point x="300" y="20" type="line"/>
      <point x="450" y="0" type="line"/>
      <point x="575" y="0" type="line"/>
      <point x="575" y="150" type="line"/>
      <point x="450" y="150" type="line"/>
      <point x="300" y="135" type="line"/>
      <point x="150" y="150" type="line"/>
    </contour>
  </outline>
</glyph>
<glyph name="ellipsis" format="1">
  <advance width="650"/>
  <unicode hex="2026"/>
  <outline>
    <contour>
      <point x="50" y="0" type="line"/>
      <point x="200" y="0" type="line"/>
      <point x="200" y="150" type="line"/>
      <point x="50" y="150" type="line"/>
    </contour>
    <contour>
      <point x="250" y="0" type="line"/>
      <point x="400" y="0" type="line"/>
      <point x="400" y="150" type="line"/>
      <point x="250" y="150" type="line"/>
    </contour>
    <contour>
      <point x="450" y="0" type="line"/>
      <point x="600" y="0" type="line"/>
      <point x="600" y="150" type="line"/>
      <point x="450" y="150" type="line"/>
    </contour>
  </outline>
</glyph>
<glyph name="guilsinglleft" format="1">
  <advance width="300"/>
  <unicode hex="2039"/>
  <outline>
    <contour>
      <point x="20" y="250" type="line"/>
      <point x="160" y="250" type="line"/>
      <point x="260" y="400" type="line"/>
      <point x="120" y="400" type="line"/>
    </contour>
    <contour>
      <point x="20" y="250" type="line"/>
      <point x="120" y="100" type="line"/>
      <point x="260" y="100" type="line"/>
      <point x="160" y="250" type="line"/>
    </contour>
  </outline>
</glyph>
<glyph name="fraction" format="1">
  <advance width="200"/>
  <unicode hex="2044"/>
  <outline>
    <contour>
      <point x="-200" y="0" type="line"/>
      <point x="-80" y="0" type="line"/>
      <point x="400" y="700" type="line"/>
      <point x="280" y="700" type="line"/>
    </contour>
  </outline>
</glyph>
<glyph name="leftwardsarrow" format="1">
  <advance width="600"/>
  <unicode hex="2190"/>
  <outline>
    <contour>
      <point x="575" y="200" type="line"/>
      <point x="575" y="300" type="line"/>
      <point x="375" y="300" type="line"/>
      <point x="100" y="285" type="line"/>
      <point x="100" y="215" type="line"/>
      <point x="375" y="200" type="line"/>
    </contour>
    <contour>
      <point x="25" y="265" type="line"/>
      <point x="25" y="240" type="line"/>
      <point x="140" y="255" type="line"/>
      <point x="155" y="275" type="line"/>
      <point x="245" y="350" type="line"/>
      <point x="385" y="485" type="line"/>
      <point x="385" y="500" type="line"/>
      <point x="260" y="500" type="line"/>
    </contour>
    <contour>
      <point x="25" y="235" type="line"/>
      <point x="260" y="0" type="line"/>
      <point x="385" y="0" type="line"/>
      <point x="385" y="15" type="line"/>
      <point x="245" y="150" type="line"/>
      <point x="155" y="225" type="line"/>
      <point x="140" y="245" type="line"/>
      <point x="140" y="270" type="line"/>
      <point x="25" y="260" type="line"/>
    </contour>
  </outline>
</glyph>
<glyph name="lessequal" format="1">
  <advance width="400"/>
  <unicode hex="2264"/>
  <outline>
    <contour>
      <point x="35" y="345" type="line"/>
      <point x="160" y="200" type="line"/>
      <point x="350" y="200" type="line"/>
      <point x="350" y="215" type="line"/>
      <point x="250" y="320" type="line"/>
      <point x="210" y="350" type="line"/>
      <point x="210" y="365" type="line"/>
    </contour>
    <contour>
      <point x="350" y="0" type="line"/>
      <point x="350" y="150" type="line"/>
      <point x="50" y="150" type="line"/>
      <point x="50" y="0" type="line"/>
    </contour>
    <contour>
      <point x="35" y="355" type="line"/>
      <point x="35" y="345" type="line"/>
      <point x="210" y="335" type="line"/>
      <point x="210" y="350" type="line"/>
      <point x="250" y="380" type="line"/>
      <point x="350" y="485" type="line"/>
      <point x="350" y="500" type="line"/>
      <point x="160" y="500" type="line"/>
    </contour>
  </outline>
</glyph>
<glyph name="greaterequal" format="1">
  <advance width="400"/>
  <unicode hex="2265"/>
  <outline>
    <contour>
      <point x="365" y="345" type="line"/>
      <point x="190" y="365" type="line"/>
      <point x="190" y="350" type="line"/>
      <point x="150" y="320" type="line"/>
      <point x="50" y="215" type="line"/>
      <point x="50" y="200" type="line"/>
      <point x="240" y="200" type="line"/>
    </contour>
    <contour>
      <point x="50" y="0" type="line"/>
      <point x="350" y="0" type="line"/>
      <point x="350" y="150" type="line"/>
      <point x="50" y="150" type="line"/>
    </contour>
    <contour>
      <point x="365" y="355" type="line"/>
      <point x="240" y="500" type="line"/>
      <point x="50" y="500" type="line"/>
      <point x="50" y="485" type="line"/>
      <point x="150" y="380" type="line"/>
      <point x="190" y="350" type="line"/>
      <point x="190" y="335" type="line"/>
      <point x="365" y="345" type="line"/>
    </contour>
  </outline>
</glyph>
<glyph name="lightshade" format="1">
  <advance width="1000"/>
  <unicode hex="2591"/>
  <outline>
    <contour>
      <point x="125" y="550" type="curve" smooth="yes"/>
      <point x="155" y="550"/>
      <point x="175" y="570"/>
      <point x="175" y="600" type="curve" smooth="yes"/>
      <point x="175" y="630"/>
      <point x="155" y="650"/>
      <point x="125" y="650" type="curve" smooth="yes"/>
      <point x="95" y="650"/>
      <point x="75" y="630"/>
      <point x="75" y="600" type="curve" smooth="yes"/>
      <point x="75" y="570"/>
      <point x="95" y="550"/>
    </contour>
    <contour>
      <point x="375" y="550" type="curve" smooth="yes"/>
      <point x="405" y="550"/>
      <point x="425" y="570"/>
      <point x="425" y="600" type="curve" smooth="yes"/>
      <point x="425" y="630"/>
      <point x="405" y="650"/>
      <point x="375" y="650" type="curve" smooth="yes"/>
      <point x="345" y="650"/>
      <point x="325" y="630"/>
      <point x="325" y="600" type="curve" smooth="yes"/>
      <point x="325" y="570"/>
      <point x="345" y="550"/>
    </contour>
    <contour>
      <point x="625" y="550" type="curve" smooth="yes"/>
      <point x="655" y="550"/>
      <point x="675" y="570"/>
      <point x="675" y="600" type="curve" smooth="yes"/>
      <point x="675" y="630"/>
      <point x="655" y="650"/>
      <point x="625" y="650" type="curve" smooth="yes"/>
      <point x="595" y="650"/>
      <point x="575" y="630"/>
      <point x="575" y="600" type="curve" smooth="yes"/>
      <point x="575" y="570"/>
      <point x="595" y="550"/>
    </contour>
    <contour>
      <point x="875" y="550" type="curve" smooth="yes"/>
      <point x="905" y="550"/>
      <point x="925" y="570"/>
      <point x="925" y="600" type="curve" smooth="yes"/>
      <point x="925" y="630"/>
      <point x="905" y="650"/>
      <point x="875" y="650" type="curve" smooth="yes"/>
      <point x="845" y="650"/>
      <point x="825" y="630"/>
      <point x="825" y="600" type="curve" smooth="yes"/>
      <point x="825" y="570"/>
      <point x="845" y="550"/>
    </contour>
    <contour>
      <point x="0" y="300" type="line"/>
      <point x="30" y="300"/>
      <point x="50" y="320"/>
      <point x="50" y="350" type="curve" smooth="yes"/>
      <point x="50" y="380"/>
      <point x="30" y="400"/>
      <point x="0" y="400" type="curve"/>
    </contour>
    <contour>
      <point x="250" y="300" type="curve" smooth="yes"/>
      <point x="280" y="300"/>
      <point x="300" y="320"/>
      <point x="300" y="350" type="curve" smooth="yes"/>
      <point x="300" y="380"/>
      <point x="280" y="400"/>
      <point x="250" y="400" type="curve" smooth="yes"/>
      <point x="220" y="400"/>
      <point x="200" y="380"/>
      <point x="200" y="350" type="curve" smooth="yes"/>
      <point x="200" y="320"/>
      <point x="220" y="300"/>
    </contour>
    <contour>
      <point x="500" y="300" type="curve" smooth="yes"/>
      <point x="530" y="300"/>
      <point x="550" y="320"/>
      <point x="550" y="350" type="curve" smooth="yes"/>
      <point x="550" y="380"/>
      <point x="530" y="400"/>
      <point x="500" y="400" type="curve" smooth="yes"/>
      <point x="470" y="400"/>
      <point x="450" y="380"/>
      <point x="450" y="350" type="curve" smooth="yes"/>
      <point x="450" y="320"/>
      <point x="470" y="300"/>
    </contour>
    <contour>
      <point x="750" y="300" type="curve" smooth="yes"/>
      <point x="780" y="300"/>
      <point x="800" y="320"/>
      <point x="800" y="350" type="curve" smooth="yes"/>
      <point x="800" y="380"/>
      <point x="780" y="400"/>
      <point x="750" y="400" type="curve" smooth="yes"/>
      <point x="720" y="400"/>
      <point x="700" y="380"/>
      <point x="700" y="350" type="curve" smooth="yes"/>
      <point x="700" y="320"/>
      <point x="720" y="300"/>
    </contour>
    <contour>
      <point x="1000" y="300" type="curve"/>
      <point x="1000" y="400" type="line"/>
      <point x="970" y="400"/>
      <point x="950" y="380"/>
      <point x="950" y="350" type="curve" smooth="yes"/>
      <point x="950" y="320"/>
      <point x="970" y="300"/>
    </contour>
    <contour>
      <point x="125" y="50" type="curve" smooth="yes"/>
      <point x="155" y="50"/>
      <point x="175" y="70"/>
      <point x="175" y="100" type="curve" smooth="yes"/>
      <point x="175" y="130"/>
      <point x="155" y="150"/>
      <point x="125" y="150" type="curve" smooth="yes"/>
      <point x="95" y="150"/>
      <point x="75" y="130"/>
      <point x="75" y="100" type="curve" smooth="yes"/>
      <point x="75" y="70"/>
      <point x="95" y="50"/>
    </contour>
    <contour>
      <point x="375" y="50" type="curve" smooth="yes"/>
      <point x="405" y="50"/>
      <point x="425" y="70"/>
      <point x="425" y="100" type="curve" smooth="yes"/>
      <point x="425" y="130"/>
      <point x="405" y="150"/>
      <point x="375" y="150" type="curve" smooth="yes"/>
      <point x="345" y="150"/>
      <point x="325" y="130"/>
      <point x="325" y="100" type="curve" smooth="yes"/>
      <point x="325" y="70"/>
      <point x="345" y="50"/>
    </contour>
    <contour>
      <point x="625" y="50" type="curve" smooth="yes"/>
      <point x="655" y="50"/>
      <point x="675" y="70"/>
      <point x="675" y="100" type="curve" smooth="yes"/>
      <point x="675" y="130"/>
      <point x="655" y="150"/>
      <point x="625" y="150" type="curve" smooth="yes"/>
      <point x="595" y="150"/>
      <point x="575" y="130"/>
      <point x="575" y="100" type="curve" smooth="yes"/>
      <point x="575" y="70"/>
      <point x="595" y="50"/>
    </contour>
    <contour>
      <point x="875" y="50" type="curve" smooth="yes"/>
      <point x="905" y="50"/>
      <point x="925" y="70"/>
      <point x="925" y="100" type="curve" smooth="yes"/>
      <point x="925" y="130"/>
      <point x="905" y="150"/>
      <point x="875" y="150" type="curve" smooth="yes"/>
      <point x="845" y="150"/>
      <point x="825" y="130"/>
      <point x="825" y="100" type="curve" smooth="yes"/>
      <point x="825" y="70"/>
      <point x="845" y="50"/>
    </contour>
    <contour>
      <point x="0" y="-200" type="line"/>
      <point x="30" y="-200"/>
      <point x="50" y="-180"/>
      <point x="50" y="-150" type="curve" smooth="yes"/>
      <point x="50" y="-120"/>
      <point x="30" y="-100"/>
      <point x="0" y="-100" type="curve"/>
    </contour>
    <contour>
      <point x="250" y="-200" type="curve" smooth="yes"/>
      <point x="280" y="-200"/>
      <point x="300" y="-180"/>
      <point x="300" y="-150" type="curve" smooth="yes"/>
      <point x="300" y="-120"/>
      <point x="280" y="-100"/>
      <point x="250" y="-100" type="curve" smooth="yes"/>
      <point x="220" y="-100"/>
      <point x="200" y="-120"/>
      <point x="200" y="-150" type="curve" smooth="yes"/>
      <point x="200" y="-180"/>
      <point x="220" y="-200"/>
    </contour>
    <contour>
      <point x="500" y="-200" type="curve" smooth="yes"/>
      <point x="530" y="-200"/>
      <point x="550" y="-180"/>
      <point x="550" y="-150" type="curve" smooth="yes"/>
      <point x="550" y="-120"/>
      <point x="530" y="-100"/>
      <point x="500" y="-100" type="curve" smooth="yes"/>
      <point x="470" y="-100"/>
      <point x="450" y="-120"/>
      <point x="450" y="-150" type="curve" smooth="yes"/>
      <point x="450" y="-180"/>
      <point x="470" y="-200"/>
    </contour>
    <contour>
      <point x="750" y="-200" type="curve" smooth="yes"/>
      <point x="780" y="-200"/>
      <point x="800" y="-180"/>
      <point x="800" y="-150" type="curve" smooth="yes"/>
      <point x="800" y="-120"/>
      <point x="780" y="-100"/>
      <point x="750" y="-100" type="curve" smooth="yes"/>
      <point x="720" y="-100"/>
      <point x="700" y="-120"/>
      <point x="700" y="-150" type="curve" smooth="yes"/>
      <point x="700" y="-180"/>
      <point x="720" y="-200"/>
    </contour>
    <contour>
      <point x="1000" y="-200" type="curve"/>
      <point x="1000" y="-100" type="line"/>
      <point x="970" y="-100"/>
      <point x="950" y="-120"/>
      <point x="950" y="-150" type="curve" smooth="yes"/>
      <point x="950" y="-180"/>
      <point x="970" y="-200"/>
    </contour>
  </outline>
</glyph>
<glyph name="mediumshade" format="1">
  <advance width="1000"/>
  <unicode hex="2592"/>
  <outline>
    <contour>
      <point x="125" y="525" type="curve" smooth="yes"/>
      <point x="170" y="525"/>
      <point x="200" y="555"/>
      <point x="200" y="600" type="curve" smooth="yes"/>
      <point x="200" y="645"/>
      <point x="170" y="675"/>
      <point x="125" y="675" type="curve" smooth="yes"/>
      <point x="80" y="675"/>
      <point x="50" y="645"/>
      <point x="50" y="600" type="curve" smooth="yes"/>
      <point x="50" y="555"/>
      <point x="80" y="525"/>
    </contour>
    <contour>
      <point x="0" y="275" type="line"/>
      <point x="50" y="275"/>
      <point x="80" y="305"/>
      <point x="80" y="350" type="curve" smooth="yes"/>
      <point x="80" y="395"/>
      <point x="50" y="425"/>
      <point x="0" y="425" type="curve"/>
    </contour>
    <contour>
      <point x="375" y="525" type="curve" smooth="yes"/>
      <point x="420" y="525"/>
      <point x="450" y="555"/>
      <point x="450" y="600" type="curve" smooth="yes"/>
      <point x="450" y="645"/>
      <point x="420" y="675"/>
      <point x="375" y="675" type="curve" smooth="yes"/>
      <point x="330" y="675"/>
      <point x="300" y="645"/>
      <point x="300" y="600" type="curve" smooth="yes"/>
      <point x="300" y="555"/>
      <point x="330" y="525"/>
    </contour>
    <contour>
      <point x="625" y="525" type="curve" smooth="yes"/>
      <point x="670" y="525"/>
      <point x="700" y="555"/>
      <point x="700" y="600" type="curve" smooth="yes"/>
      <point x="700" y="645"/>
      <point x="670" y="675"/>
      <point x="625" y="675" type="curve" smooth="yes"/>
      <point x="580" y="675"/>
      <point x="550" y="645"/>
      <point x="550" y="600" type="curve" smooth="yes"/>
      <point x="550" y="555"/>
      <point x="580" y="525"/>
    </contour>
    <contour>
      <point x="875" y="525" type="curve" smooth="yes"/>
      <point x="920" y="525"/>
      <point x="950" y="555"/>
      <point x="950" y="600" type="curve" smooth="yes"/>
      <point x="950" y="645"/>
      <point x="920" y="675"/>
      <point x="875" y="675" type="curve" smooth="yes"/>
      <point x="830" y="675"/>
      <point x="800" y="645"/>
      <point x="800" y="600" type="curve" smooth="yes"/>
      <point x="800" y="555"/>
      <point x="830" y="525"/>
    </contour>
    <contour>
      <point x="250" y="275" type="curve" smooth="yes"/>
      <point x="295" y="275"/>
      <point x="325" y="305"/>
      <point x="325" y="350" type="curve" smooth="yes"/>
      <point x="325" y="395"/>
      <point x="295" y="425"/>
      <point x="250" y="425" type="curve" smooth="yes"/>
      <point x="205" y="425"/>
      <point x="175" y="395"/>
      <point x="175" y="350" type="curve" smooth="yes"/>
      <point x="175" y="305"/>
      <point x="205" y="275"/>
    </contour>
    <contour>
      <point x="500" y="275" type="curve" smooth="yes"/>
      <point x="545" y="275"/>
      <point x="575" y="305"/>
      <point x="575" y="350" type="curve" smooth="yes"/>
      <point x="575" y="395"/>
      <point x="545" y="425"/>
      <point x="500" y="425" type="curve" smooth="yes"/>
      <point x="455" y="425"/>
      <point x="425" y="395"/>
      <point x="425" y="350" type="curve" smooth="yes"/>
      <point x="425" y="305"/>
      <point x="455" y="275"/>
    </contour>
    <contour>
      <point x="750" y="275" type="curve" smooth="yes"/>
      <point x="795" y="275"/>
      <point x="825" y="305"/>
      <point x="825" y="350" type="curve" smooth="yes"/>
      <point x="825" y="395"/>
      <point x="795" y="425"/>
      <point x="750" y="425" type="curve" smooth="yes"/>
      <point x="705" y="425"/>
      <point x="675" y="395"/>
      <point x="675" y="350" type="curve" smooth="yes"/>
      <point x="675" y="305"/>
      <point x="705" y="275"/>
    </contour>
    <contour>
      <point x="1000" y="275" type="curve"/>
      <point x="1000" y="425" type="line"/>
      <point x="950" y="425"/>
      <point x="920" y="395"/>
      <point x="920" y="350" type="curve" smooth="yes"/>
      <point x="920" y="305"/>
      <point x="950" y="275"/>
    </contour>
    <contour>
      <point x="125" y="25" type="curve" smooth="yes"/>
      <point x="170" y="25"/>
      <point x="200" y="55"/>
      <point x="200" y="100" type="curve" smooth="yes"/>
      <point x="200" y="145"/>
      <point x="170" y="175"/>
      <point x="125" y="175" type="curve" smooth="yes"/>
      <point x="80" y="175"/>
      <point x="50" y="145"/>
      <point x="50" y="100" type="curve" smooth="yes"/>
      <point x="50" y="55"/>
      <point x="80" y="25"/>
    </contour>
    <contour>
      <point x="0" y="-225" type="line"/>
      <point x="50" y="-225"/>
      <point x="80" y="-195"/>
      <point x="80" y="-150" type="curve" smooth="yes"/>
      <point x="80" y="-105"/>
      <point x="50" y="-75"/>
      <point x="0" y="-75" type="curve"/>
    </contour>
    <contour>
      <point x="375" y="25" type="curve" smooth="yes"/>
      <point x="420" y="25"/>
      <point x="450" y="55"/>
      <point x="450" y="100" type="curve" smooth="yes"/>
      <point x="450" y="145"/>
      <point x="420" y="175"/>
      <point x="375" y="175" type="curve" smooth="yes"/>
      <point x="330" y="175"/>
      <point x="300" y="145"/>
      <point x="300" y="100" type="curve" smooth="yes"/>
      <point x="300" y="55"/>
      <point x="330" y="25"/>
    </contour>
    <contour>
      <point x="625" y="25" type="curve" smooth="yes"/>
      <point x="670" y="25"/>
      <point x="700" y="55"/>
      <point x="700" y="100" type="curve" smooth="yes"/>
      <point x="700" y="145"/>
      <point x="670" y="175"/>
      <point x="625" y="175" type="curve" smooth="yes"/>
      <point x="580" y="175"/>
      <point x="550" y="145"/>
      <point x="550" y="100" type="curve" smooth="yes"/>
      <point x="550" y="55"/>
      <point x="580" y="25"/>
    </contour>
    <contour>
      <point x="875" y="25" type="curve" smooth="yes"/>
      <point x="920" y="25"/>
      <point x="950" y="55"/>
      <point x="950" y="100" type="curve" smooth="yes"/>
      <point x="950" y="145"/>
      <point x="920" y="175"/>
      <point x="875" y="175" type="curve" smooth="yes"/>
      <point x="830" y="175"/>
      <point x="800" y="145"/>
      <point x="800" y="100" type="curve" smooth="yes"/>
      <point x="800" y="55"/>
      <point x="830" y="25"/>
    </contour>
    <contour>
      <point x="250" y="-225" type="curve" smooth="yes"/>
      <point x="295" y="-225"/>
      <point x="325" y="-195"/>
      <point x="325" y="-150" type="curve" smooth="yes"/>
      <point x="325" y="-105"/>
      <point x="295" y="-75"/>
      <point x="250" y="-75" type="curve" smooth="yes"/>
      <point x="205" y="-75"/>
      <point x="175" y="-105"/>
      <point x="175" y="-150" type="curve" smooth="yes"/>
      <point x="175" y="-195"/>
      <point x="205" y="-225"/>
    </contour>
    <contour>
      <point x="500" y="-225" type="curve" smooth="yes"/>
      <point x="545" y="-225"/>
      <point x="575" y="-195"/>
      <point x="575" y="-150" type="curve" smooth="yes"/>
      <point x="575" y="-105"/>
      <point x="545" y="-75"/>
      <point x="500" y="-75" type="curve" smooth="yes"/>
      <point x="455" y="-75"/>
      <point x="425" y="-105"/>
      <point x="425" y="-150" type="curve" smooth="yes"/>
      <point x="425" y="-195"/>
      <point x="455" y="-225"/>
    </contour>
    <contour>
      <point x="750" y="-225" type="curve" smooth="yes"/>
      <point x="795" y="-225"/>
      <point x="825" y="-195"/>
      <point x="825" y="-150" type="curve" smooth="yes"/>
      <point x="825" y="-105"/>
      <point x="795" y="-75"/>
      <point x="750" y="-75" type="curve" smooth="yes"/>
      <point x="705" y="-75"/>
      <point x="675" y="-105"/>
      <point x="675" y="-150" type="curve" smooth="yes"/>
      <point x="675" y="-195"/>
      <point x="705" y="-225"/>
    </contour>
    <contour>
      <point x="1000" y="-225" type="curve"/>
      <point x="1000" y="-75" type="line"/>
      <point x="950" y="-75"/>
      <point x="920" y="-105"/>
      <point x="920" y="-150" type="curve" smooth="yes"/>
      <point x="920" y="-195"/>
      <point x="950" y="-225"/>
    </contour>
  </outline>
</glyph>
<glyph name="whiteroundedsquare" format="1">
  <advance width="1000"/>
  <unicode hex="25A2"/>
  <outline>
    <contour>
      <point x="700" y="-100" type="curve" smooth="yes"/>
      <point x="295" y="-100" type="line" smooth="yes"/>
      <point x="180" y="-100"/>
      <point x="150" y="-70"/>
      <point x="150" y="50" type="curve" smooth="yes"/>
      <point x="150" y="455" type="line" smooth="yes"/>
      <point x="150" y="570"/>
      <point x="180" y="600"/>
      <point x="300" y="600" type="curve" smooth="yes"/>
      <point x="705" y="600" type="line" smooth="yes"/>
      <point x="820" y="600"/>
      <point x="850" y="570"/>
      <point x="850" y="450" type="curve" smooth="yes"/>
      <point x="850" y="45" type="line" smooth="yes"/>
      <point x="850" y="-70"/>
      <point x="820" y="-100"/>
    </contour>
    <contour>
      <point x="270" y="-200" type="curve"/>
      <point x="730" y="-200" type="line" smooth="yes"/>
      <point x="870" y="-200"/>
      <point x="950" y="-130"/>
      <point x="950" y="20" type="curve"/>
      <point x="950" y="480" type="line" smooth="yes"/>
      <point x="950" y="620"/>
      <point x="880" y="700"/>
      <point x="730" y="700" type="curve"/>
      <point x="270" y="700" type="line" smooth="yes"/>
      <point x="130" y="700"/>
      <point x="50" y="630"/>
      <point x="50" y="480" type="curve"/>
      <point x="50" y="20" type="line" smooth="yes"/>
      <point x="50" y="-120"/>
      <point x="120" y="-200"/>
    </contour>
  </outline>
</glyph>
<glyph name="squarewithblacksmallsquare" format="1">
  <advance width="1000"/>
  <unicode hex="25A3"/>
  <outline>
    <contour>
      <point x="150" y="-100" type="line"/>
      <point x="150" y="600" type="line"/>
      <point x="850" y="600" type="line"/>
      <point x="850" y="-100" type="line"/>
    </contour>
    <contour>
      <point x="50" y="-200" type="line"/>
      <point x="950" y="-200" type="line"/>
      <point x="950" y="700" type="line"/>
      <point x="50" y="700" type="line"/>
    </contour>
    <contour>
      <point x="350" y="100" type="line"/>
      <point x="650" y="100" type="line"/>
      <point x="650" y="400" type="line"/>
      <point x="350" y="400" type="line"/>
    </contour>
  </outline>
</glyph>
<glyph name="squarewithhorizontalfill" format="1">
  <advance width="1000"/>
  <unicode hex="25A4"/>
  <outline>
    <contour>
      <point x="150" y="-100" type="line"/>
      <point x="150" y="600" type="line"/>
      <point x="850" y="600" type="line"/>
      <point x="850" y="-100" type="line"/>
    </contour>
    <contour>
      <point x="50" y="-200" type="line"/>
      <point x="950" y="-200" type="line"/>
      <point x="950" y="700" type="line"/>
      <point x="50" y="700" type="line"/>
    </contour>
    <contour>
      <point x="100" y="0" type="line"/>
      <point x="900" y="0" type="line"/>
      <point x="900" y="100" type="line"/>
      <point x="100" y="100" type="line"/>
    </contour>
    <contour>
      <point x="100" y="200" type="line"/>
      <point x="900" y="200" type="line"/>
      <point x="900" y="300" type="line"/>
      <point x="100" y="300" type="line"/>
    </contour>
    <contour>
      <point x="100" y="400" type="line"/>
      <point x="900" y="400" type="line"/>
      <point x="900" y="500" type="line"/>
      <point x="100" y="500" type="line"/>
    </contour>
  </outline>
</glyph>
<glyph name="blacksmallsquare" format="1">
  <advance width="1000"/>
  <unicode hex="25AA"/>
  <outline>
    <contour>
      <point x="300" y="50" type="line"/>
      <point x="700" y="50" type="line"/>
      <point x="700" y="450" type="line"/>
      <point x="300" y="450" type="line"/>
    </contour>
  </outline>
</glyph>
<glyph name="whitesmallsquare" format="1">
  <advance width="1000"/>
  <unicode hex="25AB"/>
  <outline>
    <contour>
      <point x="300" y="50" type="line"/>
      <point x="700" y="50" type="line"/>
      <point x="700" y="450" type="line"/>
      <point x="300" y="450" type="line"/>
    </contour>
    <contour>
      <point x="400" y="150" type="line"/>
      <point x="400" y="350" type="line"/>
      <point x="600" y="350" type="line"/>
      <point x="600" y="150" type="line"/>
    </contour>
  </outline>
</glyph>
<glyph name="diamondwithblacksmalldiamond" format="1">
  <advance width="1000"/>
  <unicode hex="25C8"/>
  <outline>
    <contour>
      <point x="500" y="-105" type="line"/>
      <point x="145" y="250" type="line"/>
      <point x="500" y="605" type="line"/>
      <point x="855" y="250" type="line"/>
    </contour>
    <contour>
      <point x="500" y="-245" type="line"/>
      <point x="995" y="250" type="line"/>
      <point x="500" y="745" type="line"/>
      <point x="5" y="250" type="line"/>
    </contour>
    <contour>
      <point x="500" y="3" type="line"/>
      <point x="748" y="250" type="line"/>
      <point x="500" y="498" type="line"/>
      <point x="253" y="250" type="line"/>
    </contour>
  </outline>
</glyph>
<glyph name="fisheye" format="1">
  <advance width="1000"/>
  <unicode hex="25C9"/>
  <outline>
    <contour>
      <point x="500" y="-210" type="curve" smooth="yes"/>
      <point x="800" y="-210"/>
      <point x="960" y="-55"/>
      <point x="960" y="250" type="curve" smooth="yes"/>
      <point x="960" y="550"/>
      <point x="800" y="710"/>
      <point x="500" y="710" type="curve" smooth="yes"/>
      <point x="200" y="710"/>
      <point x="40" y="550"/>
      <point x="40" y="250" type="curve" smooth="yes"/>
      <point x="40" y="-55"/>
      <point x="200" y="-210"/>
    </contour>
    <contour>
      <point x="500" y="-110" type="curve" smooth="yes"/>
      <point x="265" y="-110"/>
      <point x="140" y="10"/>
      <point x="140" y="250" type="curve" smooth="yes"/>
      <point x="140" y="485"/>
      <point x="265" y="610"/>
      <point x="500" y="610" type="curve" smooth="yes"/>
      <point x="735" y="610"/>
      <point x="860" y="485"/>
      <point x="860" y="250" type="curve" smooth="yes"/>
      <point x="860" y="10"/>
      <point x="735" y="-110"/>
    </contour>
    <contour>
      <point x="500" y="70" type="curve" smooth="yes"/>
      <point x="385" y="70"/>
      <point x="320" y="130"/>
      <point x="320" y="250" type="curve" smooth="yes"/>
      <point x="320" y="370"/>
      <point x="385" y="430"/>
      <point x="500" y="430" type="curve" smooth="yes"/>
      <point x="620" y="430"/>
      <point x="680" y="370"/>
      <point x="680" y="250" type="curve" smooth="yes"/>
      <point x="680" y="130"/>
      <point x="620" y="70"/>
    </contour>
  </outline>
</glyph>
<glyph name="circlewithverticalfill" format="1">
  <advance width="1000"/>
  <unicode hex="25CD"/>
  <outline>
    <contour>
      <point x="500" y="-210" type="curve" smooth="yes"/>
      <point x="800" y="-210"/>
      <point x="960" y="-55"/>
      <point x="960" y="250" type="curve" smooth="yes"/>
      <point x="960" y="550"/>
      <point x="800" y="710"/>
      <point x="500" y="710" type="curve" smooth="yes"/>
      <point x="200" y="710"/>
      <point x="40" y="550"/>
      <point x="40" y="250" type="curve" smooth="yes"/>
      <point x="40" y="-55"/>
      <point x="200" y="-210"/>
    </contour>
    <contour>
      <point x="500" y="-110" type="curve" smooth="yes"/>
      <point x="265" y="-110"/>
      <point x="140" y="10"/>
      <point x="140" y="250" type="curve" smooth="yes"/>
      <point x="140" y="485"/>
      <point x="265" y="610"/>
      <point x="500" y="610" type="curve" smooth="yes"/>
      <point x="735" y="610"/>
      <point x="860" y="485"/>
      <point x="860" y="250" type="curve" smooth="yes"/>
      <point x="860" y="10"/>
      <point x="735" y="-110"/>
    </contour>
    <contour>
      <point x="350" y="-150" type="line"/>
      <point x="350" y="650" type="line"/>
      <point x="250" y="650" type="line"/>
      <point x="250" y="-150" type="line"/>
    </contour>
    <contour>
      <point x="750" y="-150" type="line"/>
      <point x="750" y="650" type="line"/>
      <point x="650" y="650" type="line"/>
      <point x="650" y="-150" type="line"/>
    </contour>
    <contour>
      <point x="550" y="-150" type="line"/>
      <point x="550" y="650" type="line"/>
      <point x="450" y="650" type="line"/>
      <point x="450" y="-150" type="line"/>
    </contour>
  </outline>
</glyph>
<glyph name="circlewithupperhalfblack" format="1">
  <advance width="1000"/>
  <unicode hex="25D3"/>
  <outline>
    <contour>
      <point x="960" y="250" type="curve" smooth="yes"/>
      <point x="960" y="550"/>
      <point x="805" y="710"/>
      <point x="500" y="710" type="curve" smooth="yes"/>
      <point x="200" y="710"/>
      <point x="40" y="550"/>
      <point x="40" y="250" type="curve" smooth="yes"/>
      <point x="40" y="-50"/>
      <point x="200" y="-210"/>
      <point x="500" y="-210" type="curve" smooth="yes"/>
      <point x="805" y="-210"/>
      <point x="960" y="-50"/>
    </contour>
    <contour>
      <point x="860" y="250" type="line"/>
      <point x="860" y="15"/>
      <point x="740" y="-110"/>
      <point x="500" y="-110" type="curve" smooth="yes"/>
      <point x="265" y="-110"/>
      <point x="140" y="15"/>
      <point x="140" y="250" type="curve"/>
    </contour>
  </outline>
</glyph>
<glyph name="squarewithlefthalfblack" format="1">
  <advance width="1000"/>
  <unicode hex="25E7"/>
  <outline>
    <contour>
      <point x="500" y="-100" type="line"/>
      <point x="500" y="600" type="line"/>
      <point x="850" y="600" type="line"/>
      <point x="850" y="-100" type="line"/>
    </contour>
    <contour>
      <point x="50" y="-200" type="line"/>
      <point x="950" y="-200" type="line"/>
      <point x="950" y="700" type="line"/>
      <point x="50" y="700" type="line"/>
    </contour>
  </outline>
</glyph>
<glyph name="skullandcrossbones" format="1">
  <advance width="1000"/>
  <unicode hex="2620"/>
  <outline>
    <contour>
      <point x="320" y="325" type="curve" smooth="yes"/>
      <point x="365" y="325"/>
      <point x="395" y="355"/>
      <point x="395" y="400" type="curve" smooth="yes"/>
      <point x="395" y="445"/>
      <point x="365" y="475"/>
      <point x="320" y="475" type="curve" smooth="yes"/>
      <point x="275" y="475"/>
      <point x="245" y="445"/>
      <point x="245" y="400" type="curve" smooth="yes"/>
      <point x="245" y="355"/>
      <point x="275" y="325"/>
    </contour>
    <contour>
      <point x="680" y="325" type="curve" smooth="yes"/>
      <point x="725" y="325"/>
      <point x="755" y="355"/>
      <point x="755" y="400" type="curve" smooth="yes"/>
      <point x="755" y="445"/>
      <point x="725" y="475"/>
      <point x="680" y="475" type="curve" smooth="yes"/>
      <point x="635" y="475"/>
      <point x="605" y="445"/>
      <point x="605" y="400" type="curve" smooth="yes"/>
      <point x="605" y="355"/>
      <point x="635" y="325"/>
    </contour>
    <contour>
      <point x="350" y="175" type="line"/>
      <point x="250" y="175" type="line"/>
      <point x="250" y="-25" type="line"/>
      <point x="265" y="-200" type="line"/>
      <point x="335" y="-200" type="line"/>
      <point x="350" y="-25" type="line"/>
    </contour>
    <contour>
      <point x="535" y="100" type="line"/>
      <point x="460" y="100" type="line"/>
      <point x="450" y="-50" type="line"/>
      <point x="465" y="-200" type="line"/>
      <point x="535" y="-200" type="line"/>
      <point x="550" y="-50" type="line"/>
    </contour>
    <contour>
      <point x="750" y="175" type="line"/>
      <point x="650" y="175" type="line"/>
      <point x="650" y="-25" type="line"/>
      <point x="665" y="-200" type="line"/>
      <point x="735" y="-200" type="line"/>
      <point x="750" y="-25" type="line"/>
    </contour>
    <contour>
      <point x="350" y="200" type="curve"/>
      <point x="210" y="230"/>
      <point x="140" y="295"/>
      <point x="140" y="400" type="curve" smooth="yes"/>
      <point x="140" y="535"/>
      <point x="265" y="610"/>
      <point x="500" y="610" type="curve" smooth="yes"/>
      <point x="735" y="610"/>
      <point x="860" y="535"/>
      <point x="860" y="400" type="curve" smooth="yes"/>
      <point x="860" y="295"/>
      <point x="790" y="230"/>
      <point x="650" y="200" type="curve" smooth="yes"/>
      <point x="650" y="200"/>
      <point x="650" y="100"/>
      <point x="650" y="100" type="curve"/>
      <point x="850" y="135"/>
      <point x="960" y="235"/>
      <point x="960" y="400" type="curve" smooth="yes"/>
      <point x="960" y="600"/>
      <point x="800" y="710"/>
      <point x="500" y="710" type="curve" smooth="yes"/>
      <point x="200" y="710"/>
      <point x="40" y="600"/>
      <point x="40" y="400" type="curve" smooth="yes"/>
      <point x="40" y="235"/>
      <point x="150" y="135"/>
      <point x="350" y="100" type="curve" smooth="yes"/>
      <point x="350" y="100"/>
      <point x="350" y="200"/>
    </contour>
    <contour>
      <point x="495" y="385" type="line"/>
      <point x="430" y="250" type="line"/>
      <point x="430" y="200" type="line"/>
      <point x="475" y="200" type="line"/>
      <point x="500" y="250" type="line"/>
      <point x="525" y="200" type="line"/>
      <point x="570" y="200" type="line"/>
      <point x="570" y="250" type="line"/>
      <point x="510" y="385" type="line"/>
    </contour>
    <contour>
      <point x="310" y="-95" type="line"/>
      <point x="720" y="-95" type="line"/>
      <point x="720" y="-5" type="line"/>
      <point x="310" y="-5" type="line"/>
    </contour>
  </outline>
</glyph>
<glyph name="whitesmilingface" format="1">
  <advance width="1000"/>
  <unicode hex="263A"/>
  <outline>
    <contour>
      <point x="500" y="-210" type="curve" smooth="yes"/>
      <point x="800" y="-210"/>
      <point x="960" y="-55"/>
      <point x="960" y="250" type="curve" smooth="yes"/>
      <point x="960" y="550"/>
      <point x="800" y="710"/>
      <point x="500" y="710" type="curve" smooth="yes"/>
      <point x="200" y="710"/>
      <point x="40" y="550"/>
      <point x="40" y="250" type="curve" smooth="yes"/>
      <point x="40" y="-55"/>
      <point x="200" y="-210"/>
    </contour>
    <contour>
      <point x="500" y="-110" type="curve" smooth="yes"/>
      <point x="265" y="-110"/>
      <point x="140" y="10"/>
      <point x="140" y="250" type="curve" smooth="yes"/>
      <point x="140" y="485"/>
      <point x="265" y="610"/>
      <point x="500" y="610" type="curve" smooth="yes"/>
      <point x="735" y="610"/>
      <point x="860" y="485"/>
      <point x="860" y="250" type="curve" smooth="yes"/>
      <point x="860" y="10"/>
      <point x="735" y="-110"/>
    </contour>
    <contour>
      <point x="320" y="275" type="curve" smooth="yes"/>
      <point x="365" y="275"/>
      <point x="395" y="305"/>
      <point x="395" y="350" type="curve" smooth="yes"/>
      <point x="395" y="395"/>
      <point x="365" y="425"/>
      <point x="320" y="425" type="curve" smooth="yes"/>
      <point x="275" y="425"/>
      <point x="245" y="395"/>
      <point x="245" y="350" type="curve" smooth="yes"/>
      <point x="245" y="305"/>
      <point x="275" y="275"/>
    </contour>
    <contour>
      <point x="680" y="275" type="curve" smooth="yes"/>
      <point x="725" y="275"/>
      <point x="755" y="305"/>
      <point x="755" y="350" type="curve" smooth="yes"/>
      <point x="755" y="395"/>
      <point x="725" y="425"/>
      <point x="680" y="425" type="curve" smooth="yes"/>
      <point x="635" y="425"/>
      <point x="605" y="395"/>
      <point x="605" y="350" type="curve" smooth="yes"/>
      <point x="605" y="305"/>
      <point x="635" y="275"/>
    </contour>
    <contour>
      <point x="500" y="0" type="curve" smooth="yes"/>
      <point x="385" y="0"/>
      <point x="320" y="60"/>
      <point x="320" y="180" type="curve"/>
      <point x="680" y="180" type="line"/>
      <point x="680" y="60"/>
      <point x="620" y="0"/>
    </contour>
  </outline>
</glyph>
<glyph name="whiteuppointingindex" format="1">
  <advance width="600"/>
  <unicode hex="1F446"/>
  <outline>
    <contour>
      <point x="95" y="395" type="curve" smooth="yes"/>
      <point x="95" y="720"/>
      <point x="145" y="760"/>
      <point x="195" y="760" type="curve" smooth="yes"/>
      <point x="225" y="760"/>
      <point x="245" y="740"/>
      <point x="245" y="650" type="curve" smooth="yes"/>
      <point x="245" y="620"/>
      <point x="245" y="535"/>
      <point x="245" y="470" type="curve"/>
      <point x="245" y="460" type="line"/>
      <point x="245" y="395" type="line"/>
      <point x="195" y="395" type="line" smooth="yes"/>
      <point x="195" y="395"/>
      <point x="195" y="600"/>
      <point x="195" y="650" type="curve" smooth="yes"/>
      <point x="195.0" y="695.0"/>
      <point x="195.0" y="710.0"/>
      <point x="185" y="710" type="curve" smooth="yes"/>
      <point x="171.66666666666666" y="710.0"/>
      <point x="145" y="651.6666666666667"/>
      <point x="145" y="360" type="curve" smooth="yes"/>
      <point x="145" y="340" type="line"/>
      <point x="115" y="350" type="line"/>
      <point x="100" y="350"/>
      <point x="95" y="375"/>
    </contour>
    <contour>
      <point x="230" y="425" type="line"/>
      <point x="230.0" y="485.0"/>
      <point x="255.0" y="505.0"/>
      <point x="280" y="505" type="curve" smooth="yes"/>
      <point x="310" y="505"/>
      <point x="350" y="495"/>
      <point x="350" y="340" type="curve" smooth="yes"/>
      <point x="350" y="225"/>
      <point x="312.3333333333333" y="205.0"/>
      <point x="275" y="205" type="curve" smooth="yes"/>
      <point x="235" y="205"/>
      <point x="220" y="240"/>
      <point x="225" y="275" type="curve"/>
      <point x="260" y="305" type="line"/>
      <point x="260" y="285" type="line" smooth="yes"/>
      <point x="260" y="275.0"/>
      <point x="263.0" y="255.0"/>
      <point x="275" y="255" type="curve" smooth="yes"/>
      <point x="296.42857142857144" y="255.0"/>
      <point x="305.0" y="285.0"/>
      <point x="305" y="340" type="curve" smooth="yes"/>
      <point x="305.0" y="410.0"/>
      <point x="296.25" y="455.0"/>
      <point x="270" y="455" type="curve" smooth="yes"/>
      <point x="252.14285714285714" y="455.0"/>
      <point x="245.0" y="430.0"/>
      <point x="245" y="415" type="curve"/>
    </contour>
    <contour>
      <point x="510" y="0" type="curve"/>
      <point x="480" y="-25"/>
      <point x="405" y="-45"/>
      <point x="325" y="-45" type="curve" smooth="yes"/>
      <point x="255" y="-45"/>
      <point x="185" y="-30"/>
      <point x="145" y="5" type="curve" smooth="yes"/>
      <point x="80" y="70"/>
      <point x="40" y="220"/>
      <point x="40" y="250" type="curve" smooth="yes"/>
      <point x="40" y="290"/>
      <point x="50" y="320"/>
      <point x="150" y="380" type="curve"/>
      <point x="195" y="410"/>
      <point x="255" y="425"/>
      <point x="280" y="400" type="curve" smooth="yes"/>
      <point x="300" y="380"/>
      <point x="305" y="345"/>
      <point x="225" y="265" type="curve"/>
      <point x="210" y="250" type="line" smooth="yes"/>
      <point x="194.57221568320261" y="234.57221568320261"/>
      <point x="160" y="235"/>
      <point x="150" y="255" type="curve"/>
      <point x="184.3610818878216" y="289.36108188782157"/>
      <point x="264.50640920313117" y="350.49359079686883"/>
      <point x="245" y="370" type="curve" smooth="yes"/>
      <point x="235.30746098795575" y="379.6925390120443"/>
      <point x="222.3055765789577" y="378.040419330151"/>
      <point x="170" y="340" type="curve" smooth="yes"/>
      <point x="107.03247662485049" y="296.40709920181956"/>
      <point x="90.0" y="277.0"/>
      <point x="90" y="250" type="curve"/>
      <point x="90.0" y="221.42857142857144"/>
      <point x="120.14052553830359" y="109.8126326155952"/>
      <point x="165" y="50" type="curve"/>
      <point x="209.99618372396708" y="79.99745581597807"/>
      <point x="275.0" y="100.0"/>
      <point x="345" y="100" type="curve" smooth="yes"/>
      <point x="398.1034482758621" y="100.0"/>
      <point x="445.2516946336653" y="90.91534861826034"/>
      <point x="485" y="60" type="curve"/>
      <point x="489.51264109180676" y="109.6390520098746"/>
      <point x="490.0" y="175.0"/>
      <point x="480" y="205" type="curve"/>
      <point x="525" y="215" type="line"/>
      <point x="540" y="160"/>
      <point x="540" y="60"/>
    </contour>
    <contour>
      <point x="375" y="25" type="curve" smooth="yes"/>
      <point x="375" y="35"/>
      <point x="370" y="45"/>
      <point x="340" y="45" type="curve"/>
      <point x="300" y="45"/>
      <point x="295" y="35"/>
      <point x="295" y="25" type="curve" smooth="yes"/>
      <point x="295" y="15"/>
      <point x="300" y="5"/>
      <point x="340" y="5" type="curve"/>
      <point x="370" y="5"/>
      <point x="375" y="15"/>
    </contour>
    <contour>
      <point x="475" y="400" type="curve" smooth="yes"/>
      <point x="460" y="400"/>
      <point x="460" y="380"/>
      <point x="460" y="365" type="curve" smooth="yes"/>
      <point x="460" y="260" type="line" smooth="yes"/>
      <point x="460" y="245"/>
      <point x="460" y="230"/>
      <point x="480" y="230" type="curve" smooth="yes"/>
      <point x="500" y="230"/>
      <point x="505" y="285"/>
      <point x="505" y="320" type="curve" smooth="yes"/>
      <point x="505" y="365"/>
      <point x="490" y="400"/>
    </contour>
    <contour>
      <point x="480" y="180" type="curve" smooth="yes"/>
      <point x="445" y="180"/>
      <point x="430" y="205"/>
      <point x="430" y="270" type="curve"/>
      <point x="435" y="385" type="line"/>
      <point x="440" y="425"/>
      <point x="445" y="450"/>
      <point x="480" y="450" type="curve" smooth="yes"/>
      <point x="505" y="450"/>
      <point x="555" y="420"/>
      <point x="555" y="320" type="curve" smooth="yes"/>
      <point x="555" y="230"/>
      <point x="515" y="180"/>
    </contour>
    <contour>
      <point x="370" y="440" type="curve" smooth="yes"/>
      <point x="360" y="440"/>
      <point x="355" y="430"/>
      <point x="355" y="415" type="curve" smooth="yes"/>
      <point x="355" y="265" type="line" smooth="yes"/>
      <point x="355" y="250"/>
      <point x="365" y="240"/>
      <point x="380" y="240" type="curve" smooth="yes"/>
      <point x="405" y="240"/>
      <point x="410" y="300"/>
      <point x="410" y="345" type="curve" smooth="yes"/>
      <point x="410" y="395"/>
      <point x="390" y="440"/>
    </contour>
    <contour>
      <point x="380" y="190" type="curve" smooth="yes"/>
      <point x="350" y="190"/>
      <point x="325" y="215"/>
      <point x="330" y="255" type="curve"/>
      <point x="325" y="415" type="line"/>
      <point x="325" y="470"/>
      <point x="345" y="490"/>
      <point x="375" y="490" type="curve" smooth="yes"/>
      <point x="410" y="490"/>
      <point x="455" y="450"/>
      <point x="455" y="345" type="curve" smooth="yes"/>
      <point x="455" y="245"/>
      <point x="415" y="190"/>
    </contour>
  </outline>
</glyph>
<glyph name="twistedrightwardsarrows" format="1">
  <advance width="1200"/>
  <unicode hex="1F500"/>
  <outline>
    <contour>
      <point x="100" y="400" type="line"/>
      <point x="185" y="400" type="line"/>
      <point x="452.536231884" y="400.0"/>
      <point x="585" y="0"/>
      <point x="895" y="0" type="curve"/>
      <point x="1050" y="15" type="line"/>
      <point x="1050" y="85" type="line"/>
      <point x="875" y="100" type="line"/>
      <point x="670" y="100"/>
      <point x="490" y="500"/>
      <point x="195" y="500" type="curve"/>
      <point x="100" y="500" type="line"/>
    </contour>
    <contour>
      <point x="1125" y="65" type="line"/>
      <point x="965" y="225" type="line"/>
      <point x="840" y="225" type="line"/>
      <point x="840" y="210" type="line"/>
      <point x="905" y="150" type="line"/>
      <point x="995" y="75" type="line"/>
      <point x="1010" y="55" type="line"/>
      <point x="1125" y="40" type="line"/>
    </contour>
    <contour>
      <point x="1125" y="35" type="line"/>
      <point x="1125" y="60" type="line"/>
      <point x="1010" y="70" type="line"/>
      <point x="1010" y="45" type="line"/>
      <point x="995" y="25" type="line"/>
      <point x="905" y="-50" type="line"/>
      <point x="765" y="-185" type="line"/>
      <point x="765" y="-200" type="line"/>
      <point x="890" y="-200" type="line"/>
    </contour>
    <contour>
      <point x="1125" y="435" type="line"/>
      <point x="1125" y="460" type="line"/>
      <point x="1010" y="445" type="line"/>
      <point x="995" y="425" type="line"/>
      <point x="905" y="350" type="line"/>
      <point x="840" y="290" type="line"/>
      <point x="840" y="275" type="line"/>
      <point x="965" y="275" type="line"/>
    </contour>
    <contour>
      <point x="1125" y="465" type="line"/>
      <point x="890" y="700" type="line"/>
      <point x="765" y="700" type="line"/>
      <point x="765" y="685" type="line"/>
      <point x="905" y="550" type="line"/>
      <point x="995" y="475" type="line"/>
      <point x="1010" y="455" type="line"/>
      <point x="1010" y="430" type="line"/>
      <point x="1125" y="440" type="line"/>
    </contour>
    <contour>
      <point x="415" y="205" type="line"/>
      <point x="345" y="145"/>
      <point x="270" y="100"/>
      <point x="185" y="100" type="curve"/>
      <point x="100" y="100" type="line"/>
      <point x="100" y="0" type="line"/>
      <point x="195" y="0" type="line"/>
      <point x="310" y="0"/>
      <point x="405" y="60"/>
      <point x="490" y="130" type="curve"/>
    </contour>
    <contour>
      <point x="675" y="295" type="line"/>
      <point x="740" y="360"/>
      <point x="804.918615768" y="400.995349472"/>
      <point x="875" y="405" type="curve" smooth="yes"/>
      <point x="1050" y="415" type="line"/>
      <point x="1050" y="485" type="line"/>
      <point x="875" y="495" type="line" smooth="yes"/>
      <point x="766.707579695" y="501.188138303"/>
      <point x="680" y="445"/>
      <point x="600" y="365" type="curve"/>
    </contour>
  </outline>
</glyph>
<glyph name="AE.small" format="1">
  <advance width="950"/>
  <outline>
    <contour>
      <point x="500" y="75" type="line"/>
      <point x="500" y="200" type="line"/>
      <point x="100" y="200" type="line"/>
      <point x="100" y="75" type="line"/>
    </contour>
    <contour>
      <point x="400" y="500" type="line"/>
      <point x="105" y="415"/>
      <point x="50" y="305"/>
      <point x="50" y="50" type="curve" smooth="yes"/>
      <point x="50" y="0" type="line"/>
      <point x="200" y="0" type="line"/>
      <point x="200" y="50" type="line" smooth="yes"/>
      <point x="200" y="280"/>
      <point x="235" y="310"/>
      <point x="465" y="365" type="curve"/>
    </contour>
    <contour>
      <point x="400" y="0" type="line"/>
      <point x="550" y="0" type="line"/>
      <point x="550" y="500" type="line"/>
      <point x="400" y="500" type="line"/>
    </contour>
    <contour>
      <point x="450" y="0" type="line"/>
      <point x="900" y="0" type="line"/>
      <point x="900" y="150" type="line"/>
      <point x="450" y="150" type="line"/>
    </contour>
    <contour>
      <point x="450" y="350" type="line"/>
      <point x="900" y="350" type="line"/>
      <point x="900" y="500" type="line"/>
      <point x="450" y="500" type="line"/>
    </contour>
    <contour>
      <point x="450" y="200" type="line"/>
      <point x="850" y="200" type="line"/>
      <point x="850" y="300" type="line"/>
      <point x="450" y="300" type="line"/>
    </contour>
    <contour>
      <point x="300" y="650" type="move" name="top"/>
    </contour>
    <contour>
      <point x="665" y="650" type="move" name="top"/>
    </contour>
    <contour>
      <point x="665" y="450" type="move" name="top"/>
    </contour>
  </outline>
</glyph>
<glyph name="A.small" format="1">
  <advance width="600"/>
  <outline>
    <contour>
      <point x="500" y="100" type="line"/>
      <point x="500" y="200" type="line"/>
      <point x="100" y="200" type="line"/>
      <point x="100" y="100" type="line"/>
    </contour>
    <contour>
      <point x="250" y="500" type="line"/>
      <point x="93.4122703642" y="411.91940208"/>
      <point x="50" y="287.764705882"/>
      <point x="50" y="90" type="curve" smooth="yes"/>
      <point x="50" y="0" type="line"/>
      <point x="200" y="0" type="line"/>
      <point x="200" y="90" type="line" smooth="yes"/>
      <point x="200" y="291.0"/>
      <point x="236.238178827" y="350.599118787"/>
      <point x="390" y="425" type="curve"/>
    </contour>
    <contour>
      <point x="350" y="500" type="curve"/>
      <point x="250" y="500" type="line"/>
      <point x="210" y="425" type="line"/>
      <point x="363.761821173" y="350.599118787"/>
      <point x="400" y="291.0"/>
      <point x="400" y="90" type="curve" smooth="yes"/>
      <point x="400" y="0" type="line"/>
      <point x="550" y="0" type="line"/>
      <point x="550" y="90" type="line" smooth="yes"/>
      <point x="550" y="287.764705882"/>
      <point x="506.587729636" y="411.91940208"/>
    </contour>
    <contour>
      <point x="300.0" y="650.0" type="move" name="top"/>
    </contour>
  </outline>
</glyph>
<glyph name="B.small" format="1">
  <advance width="600"/>
  <outline>
    <contour>
      <point x="365" y="500" type="curve" smooth="yes"/>
      <point x="110" y="500" type="line"/>
      <point x="110" y="365" type="line"/>
      <point x="360" y="365" type="line"/>
      <point x="390" y="365"/>
      <point x="400" y="355"/>
      <point x="400" y="335" type="curve"/>
      <point x="550" y="360" type="line"/>
      <point x="550" y="450"/>
      <point x="485" y="500"/>
    </contour>
    <contour>
      <point x="200" y="0" type="line"/>
      <point x="200" y="500" type="line"/>
      <point x="50" y="500" type="line"/>
      <point x="50" y="0" type="line"/>
    </contour>
    <contour>
      <point x="365" y="0" type="line" smooth="yes"/>
      <point x="485" y="0"/>
      <point x="550" y="50"/>
      <point x="550" y="140" type="curve"/>
      <point x="400" y="165" type="line"/>
      <point x="400" y="145"/>
      <point x="390" y="135"/>
      <point x="360" y="135" type="curve"/>
      <point x="110" y="135" type="line"/>
      <point x="110" y="0" type="line"/>
    </contour>
    <contour>
      <point x="550" y="140" type="line"/>
      <point x="550.0" y="185.0"/>
      <point x="535" y="230"/>
      <point x="480" y="250" type="curve"/>
      <point x="535" y="270"/>
      <point x="550.0" y="315.0"/>
      <point x="550" y="360" type="curve"/>
      <point x="400" y="335" type="line"/>
      <point x="400" y="315"/>
      <point x="390" y="305"/>
      <point x="360" y="305" type="curve"/>
      <point x="130" y="305" type="line"/>
      <point x="130" y="300" type="line"/>
      <point x="100" y="300" type="line"/>
      <point x="115" y="250" type="line"/>
      <point x="100" y="200" type="line"/>
      <point x="130" y="200" type="line"/>
      <point x="130" y="195" type="line"/>
      <point x="360" y="195" type="line"/>
      <point x="390" y="195"/>
      <point x="400" y="185"/>
      <point x="400" y="165" type="curve"/>
    </contour>
  </outline>
</glyph>
<glyph name="D.small" format="1">
  <advance width="600"/>
  <outline>
    <contour>
      <point x="200" y="0" type="line"/>
      <point x="200" y="500" type="line"/>
      <point x="50" y="500" type="line"/>
      <point x="50" y="0" type="line"/>
    </contour>
    <contour>
      <point x="330.0" y="0.0" type="line" smooth="yes"/>
      <point x="470.0" y="0.0"/>
      <point x="550.0" y="70.0"/>
      <point x="550.0" y="245.0" type="curve"/>
      <point x="550" y="250" type="line"/>
      <point x="400" y="250" type="line"/>
      <point x="400.0" y="240.0" type="line" smooth="yes"/>
      <point x="400" y="170"/>
      <point x="380.0" y="150.0"/>
      <point x="300.0" y="150.0" type="curve"/>
      <point x="125" y="150" type="line"/>
      <point x="145" y="0" type="line"/>
    </contour>
    <contour>
      <point x="330" y="500" type="curve"/>
      <point x="135" y="500" type="line"/>
      <point x="135" y="350" type="line"/>
      <point x="300" y="350" type="line"/>
      <point x="380" y="350"/>
      <point x="400" y="330"/>
      <point x="400" y="260" type="curve" smooth="yes"/>
      <point x="400" y="250" type="line"/>
      <point x="550" y="250" type="line"/>
      <point x="550" y="255" type="line"/>
      <point x="550" y="430"/>
      <point x="470" y="500"/>
    </contour>
  </outline>
</glyph>
<glyph name="F.small" format="1">
  <advance width="600"/>
  <outline>
    <contour>
      <point x="50" y="0" type="line"/>
      <point x="200" y="0" type="line"/>
      <point x="200" y="500" type="line"/>
      <point x="50" y="500" type="line"/>
    </contour>
    <contour>
      <point x="100" y="350" type="line"/>
      <point x="550" y="350" type="line"/>
      <point x="550" y="500" type="line"/>
      <point x="100" y="500" type="line"/>
    </contour>
    <contour>
      <point x="100" y="125" type="line"/>
      <point x="500" y="125" type="line"/>
      <point x="500" y="250" type="line"/>
      <point x="100" y="250" type="line"/>
    </contour>
  </outline>
</glyph>
<glyph name="G.small" format="1">
  <advance width="600"/>
  <outline>
    <contour>
      <point x="300" y="175" type="line"/>
      <point x="575" y="175" type="line"/>
      <point x="575" y="270" type="line"/>
      <point x="300" y="270" type="line"/>
    </contour>
    <contour>
      <point x="540" y="175" type="line"/>
      <point x="400" y="175" type="line"/>
      <point x="400.0" y="80.0" type="line"/>
      <point x="410" y="0" type="line"/>
      <point x="550.0" y="0.0" type="line"/>
      <point x="550" y="85" type="line"/>
    </contour>
    <contour>
      <point x="550" y="320" type="line"/>
      <point x="550" y="460"/>
      <point x="490" y="510"/>
      <point x="300" y="510" type="curve" smooth="yes"/>
      <point x="120" y="510"/>
      <point x="50" y="440"/>
      <point x="50" y="310" type="curve"/>
      <point x="50" y="250" type="line"/>
      <point x="200" y="250" type="line"/>
      <point x="200" y="260" type="line" smooth="yes"/>
      <point x="200" y="340"/>
      <point x="220" y="360"/>
      <point x="300" y="360" type="curve" smooth="yes"/>
      <point x="380" y="360"/>
      <point x="400" y="350"/>
      <point x="400" y="320" type="curve"/>
      <point x="400" y="305" type="line"/>
      <point x="550" y="305" type="line"/>
    </contour>
    <contour>
      <point x="240" y="-10" type="curve"/>
      <point x="335" y="-10"/>
      <point x="390" y="25"/>
      <point x="400" y="80" type="curve"/>
      <point x="400" y="175" type="line"/>
      <point x="400.0" y="137.5"/>
      <point x="375.0" y="125.0"/>
      <point x="300" y="125" type="curve"/>
      <point x="220.0" y="125.0"/>
      <point x="200" y="148.0"/>
      <point x="200" y="240" type="curve" smooth="yes"/>
      <point x="200" y="250" type="line"/>
      <point x="50" y="250" type="line"/>
      <point x="50" y="190" type="line"/>
      <point x="50.0" y="60.0"/>
      <point x="105" y="-10"/>
    </contour>
  </outline>
</glyph>
<glyph name="IJ.small" format="1">
  <advance width="500"/>
  <outline>
    <contour>
      <point x="50" y="170" type="line"/>
      <point x="50.0" y="37.3684210526"/>
      <point x="110.0" y="-10.0"/>
      <point x="250" y="-10" type="curve" smooth="yes"/>
      <point x="380" y="-10"/>
      <point x="450" y="50"/>
      <point x="450" y="190" type="curve"/>
      <point x="450" y="500" type="line"/>
      <point x="300" y="500" type="line"/>
      <point x="300" y="190" type="line" smooth="yes"/>
      <point x="300" y="150"/>
      <point x="280" y="140"/>
      <point x="250" y="140" type="curve" smooth="yes"/>
      <point x="220.0" y="140.0"/>
      <point x="200.0" y="147.777777778"/>
      <point x="200" y="175" type="curve"/>
      <point x="200" y="185" type="line"/>
      <point x="50" y="185" type="line"/>
    </contour>
    <contour>
      <point x="50" y="255" type="line"/>
      <point x="200" y="255" type="line"/>
      <point x="200" y="500" type="line"/>
      <point x="50" y="500" type="line"/>
    </contour>
    <contour>
      <point x="125.0" y="650.0" type="move" name="top"/>
    </contour>
  </outline>
</glyph>
<glyph name="K.small" format="1">
  <advance width="600"/>
  <outline>
    <contour>
      <point x="50" y="500" type="line"/>
      <point x="50" y="0" type="line"/>
      <point x="200" y="0" type="line"/>
      <point x="200" y="500" type="line"/>
    </contour>
    <contour>
      <point x="130" y="175" type="line"/>
      <point x="300" y="175" type="line"/>
      <point x="300" y="325" type="line"/>
      <point x="130" y="325" type="line"/>
    </contour>
    <contour>
      <point x="340" y="205" type="line"/>
      <point x="470" y="205"/>
      <point x="520" y="290"/>
      <point x="540" y="425" type="curve" smooth="yes"/>
      <point x="550" y="500" type="line"/>
      <point x="400" y="500" type="line"/>
      <point x="390" y="425" type="line" smooth="yes"/>
      <point x="380" y="335"/>
      <point x="370" y="325"/>
      <point x="290" y="325" type="curve"/>
      <point x="300" y="175" type="line"/>
    </contour>
    <contour>
      <point x="340" y="295" type="curve"/>
      <point x="290" y="175" type="line"/>
      <point x="370" y="175"/>
      <point x="380" y="165"/>
      <point x="390" y="75" type="curve" smooth="yes"/>
      <point x="400" y="0" type="line"/>
      <point x="550" y="0" type="line"/>
      <point x="540" y="75" type="line" smooth="yes"/>
      <point x="520" y="210"/>
      <point x="470" y="295"/>
    </contour>
  </outline>
</glyph>
<glyph name="M.small" format="1">
  <advance width="800"/>
  <outline>
    <contour>
      <point x="50" y="0" type="line"/>
      <point x="200" y="0" type="line"/>
      <point x="200" y="355" type="line"/>
      <point x="170" y="500" type="line"/>
      <point x="50" y="500" type="line"/>
    </contour>
    <contour>
      <point x="90" y="365" type="line"/>
      <point x="275" y="165" type="line" smooth="yes"/>
      <point x="315" y="125"/>
      <point x="325" y="85"/>
      <point x="325" y="15" type="curve" smooth="yes"/>
      <point x="325" y="0" type="line"/>
      <point x="475" y="0" type="line"/>
      <point x="475" y="30" type="line" smooth="yes"/>
      <point x="475" y="105"/>
      <point x="440" y="210"/>
      <point x="335" y="320" type="curve" smooth="yes"/>
      <point x="170" y="500" type="line"/>
    </contour>
    <contour>
      <point x="750" y="0" type="line"/>
      <point x="750" y="500" type="line"/>
      <point x="630" y="500" type="line"/>
      <point x="600" y="355" type="line"/>
      <point x="600" y="0" type="line"/>
    </contour>
    <contour>
      <point x="710" y="365" type="line"/>
      <point x="630" y="500" type="line"/>
      <point x="465" y="320" type="line" smooth="yes"/>
      <point x="360" y="210"/>
      <point x="325" y="105"/>
      <point x="325" y="30" type="curve" smooth="yes"/>
      <point x="325" y="0" type="line"/>
      <point x="475" y="0" type="line"/>
      <point x="475" y="15" type="line" smooth="yes"/>
      <point x="475" y="85"/>
      <point x="485" y="125"/>
      <point x="525" y="165" type="curve" smooth="yes"/>
    </contour>
  </outline>
</glyph>
<glyph name="N.small" format="1">
  <advance width="600"/>
  <outline>
    <contour>
      <point x="410.0" y="0.0" type="line"/>
      <point x="550.0" y="0.0" type="line"/>
      <point x="550.0" y="500.0" type="line"/>
      <point x="400.0" y="500.0" type="line"/>
      <point x="400.0" y="323.0" type="line"/>
      <point x="405" y="240" type="line"/>
      <point x="190.0" y="500.0" type="line"/>
      <point x="50.0" y="500.0" type="line"/>
      <point x="50.0" y="0.0" type="line"/>
      <point x="200.0" y="0.0" type="line"/>
      <point x="200.0" y="175.0" type="line"/>
      <point x="195" y="260" type="line"/>
    </contour>
    <contour>
      <point x="300" y="450" type="move" name="top"/>
    </contour>
  </outline>
</glyph>
<glyph name="OE.small" format="1">
  <advance width="950"/>
  <outline>
    <contour>
      <point x="500" y="0" type="line"/>
      <point x="550" y="0" type="line"/>
      <point x="550" y="500" type="line"/>
      <point x="500" y="500" type="line"/>
      <point x="400" y="375" type="line"/>
      <point x="400" y="125" type="line"/>
    </contour>
    <contour>
      <point x="270" y="500" type="line"/>
      <point x="130" y="500"/>
      <point x="50" y="430"/>
      <point x="50" y="255" type="curve"/>
      <point x="50" y="250" type="line"/>
      <point x="200" y="250" type="line"/>
      <point x="200" y="260" type="line" smooth="yes"/>
      <point x="200" y="330"/>
      <point x="220" y="350"/>
      <point x="300" y="350" type="curve"/>
      <point x="300" y="500" type="line"/>
    </contour>
    <contour>
      <point x="500" y="0" type="line"/>
      <point x="900" y="0" type="line"/>
      <point x="900" y="150" type="line"/>
      <point x="500" y="150" type="line"/>
    </contour>
    <contour>
      <point x="500" y="350" type="line"/>
      <point x="900" y="350" type="line"/>
      <point x="900" y="500" type="line"/>
      <point x="500" y="500" type="line"/>
    </contour>
    <contour>
      <point x="300" y="500" type="curve"/>
      <point x="300" y="350" type="line"/>
      <point x="380" y="350"/>
      <point x="400" y="330"/>
      <point x="400" y="260" type="curve" smooth="yes"/>
      <point x="400" y="250" type="line"/>
      <point x="500" y="250" type="line"/>
      <point x="500" y="255" type="line"/>
      <point x="500" y="430"/>
      <point x="430" y="500"/>
    </contour>
    <contour>
      <point x="270" y="0" type="curve"/>
      <point x="300" y="0" type="line"/>
      <point x="300" y="150" type="line"/>
      <point x="220" y="150"/>
      <point x="200" y="170"/>
      <point x="200" y="240" type="curve" smooth="yes"/>
      <point x="200" y="250" type="line"/>
      <point x="50" y="250" type="line"/>
      <point x="50" y="245" type="line"/>
      <point x="50" y="70"/>
      <point x="130" y="0"/>
    </contour>
    <contour>
      <point x="300" y="0" type="line"/>
      <point x="430" y="0"/>
      <point x="500" y="70"/>
      <point x="500" y="245" type="curve"/>
      <point x="500" y="250" type="line"/>
      <point x="400" y="250" type="line"/>
      <point x="400" y="240" type="line" smooth="yes"/>
      <point x="400" y="170"/>
      <point x="380" y="150"/>
      <point x="300" y="150" type="curve"/>
    </contour>
    <contour>
      <point x="450" y="200" type="line"/>
      <point x="850" y="200" type="line"/>
      <point x="850" y="300" type="line"/>
      <point x="450" y="300" type="line"/>
    </contour>
    <contour>
      <point x="300.0" y="650.0" type="move" name="top"/>
    </contour>
    <contour>
      <point x="665.0" y="650.0" type="move" name="top"/>
    </contour>
    <contour>
      <point x="665" y="450" type="move" name="top"/>
    </contour>
    <contour>
      <point x="300" y="650" type="move" name="top"/>
    </contour>
    <contour>
      <point x="665" y="650" type="move" name="top"/>
    </contour>
  </outline>
</glyph>
<glyph name="P.small" format="1">
  <advance width="600"/>
  <outline>
    <contour>
      <point x="200" y="500" type="line"/>
      <point x="50" y="500" type="line"/>
      <point x="50" y="0" type="line"/>
      <point x="200" y="0" type="line"/>
    </contour>
    <contour>
      <point x="330" y="100" type="line" smooth="yes"/>
      <point x="470" y="100"/>
      <point x="550" y="155"/>
      <point x="550" y="270" type="curve"/>
      <point x="550" y="300" type="line"/>
      <point x="400" y="300" type="line"/>
      <point x="400" y="290" type="line" smooth="yes"/>
      <point x="400" y="260"/>
      <point x="380" y="250"/>
      <point x="300" y="250" type="curve"/>
      <point x="110" y="250" type="line"/>
      <point x="110" y="100" type="line"/>
    </contour>
    <contour>
      <point x="330" y="500" type="curve" smooth="yes"/>
      <point x="110" y="500" type="line"/>
      <point x="110" y="350" type="line"/>
      <point x="300" y="350" type="line"/>
      <point x="380" y="350"/>
      <point x="400" y="340"/>
      <point x="400" y="310" type="curve" smooth="yes"/>
      <point x="400" y="300" type="line"/>
      <point x="550" y="300" type="line"/>
      <point x="550" y="330" type="line"/>
      <point x="550" y="445"/>
      <point x="470" y="500"/>
    </contour>
  </outline>
</glyph>
<glyph name="Q.small" format="1">
  <advance width="600"/>
  <outline>
    <contour>
      <point x="50" y="255" type="curve"/>
      <point x="50" y="245" type="line"/>
      <point x="50" y="95"/>
      <point x="115" y="15"/>
      <point x="230" y="5" type="curve"/>
      <point x="225" y="-50" type="line"/>
      <point x="375" y="-50" type="line"/>
      <point x="370" y="5" type="line"/>
      <point x="485" y="15"/>
      <point x="550" y="95"/>
      <point x="550" y="245" type="curve"/>
      <point x="550" y="255" type="line"/>
      <point x="550" y="430"/>
      <point x="470" y="500"/>
      <point x="330" y="500" type="curve" smooth="yes"/>
      <point x="270" y="500" type="line" smooth="yes"/>
      <point x="130" y="500"/>
      <point x="50" y="430"/>
    </contour>
    <contour>
      <point x="200" y="230" type="curve" smooth="yes"/>
      <point x="200" y="260" type="line" smooth="yes"/>
      <point x="200" y="330"/>
      <point x="220" y="350"/>
      <point x="300" y="350" type="curve"/>
      <point x="380" y="350"/>
      <point x="400" y="330"/>
      <point x="400" y="260" type="curve" smooth="yes"/>
      <point x="400" y="230" type="line" smooth="yes"/>
      <point x="400" y="175"/>
      <point x="390" y="150"/>
      <point x="360" y="135" type="curve"/>
      <point x="350" y="250" type="line"/>
      <point x="250" y="250" type="line"/>
      <point x="240" y="135" type="line"/>
      <point x="210" y="150"/>
      <point x="200" y="175"/>
    </contour>
    <contour>
      <point x="300.0" y="650.0" type="move" name="top"/>
    </contour>
    <contour>
      <point x="300.0" y="650.0" type="move" name="top"/>
    </contour>
    <contour>
      <point x="300" y="650" type="move" name="top"/>
    </contour>
  </outline>
</glyph>
<glyph name="R.small" format="1">
  <advance width="600"/>
  <outline>
    <contour>
      <point x="200" y="500" type="line"/>
      <point x="50" y="500" type="line"/>
      <point x="50" y="0" type="line"/>
      <point x="200" y="0" type="line"/>
    </contour>
    <contour>
      <point x="330" y="180" type="line"/>
      <point x="470" y="180"/>
      <point x="550" y="210"/>
      <point x="550" y="330" type="curve"/>
      <point x="550" y="340" type="line"/>
      <point x="400" y="320" type="line"/>
      <point x="400" y="290"/>
      <point x="380" y="285"/>
      <point x="300" y="285" type="curve"/>
      <point x="110" y="285" type="line"/>
      <point x="110" y="160" type="line"/>
      <point x="310" y="160" type="line"/>
    </contour>
    <contour>
      <point x="330" y="500" type="curve" smooth="yes"/>
      <point x="110" y="500" type="line"/>
      <point x="110" y="355" type="line"/>
      <point x="300" y="355" type="line"/>
      <point x="380.0" y="355.0"/>
      <point x="400.0" y="349.166666667"/>
      <point x="400" y="320" type="curve"/>
      <point x="550" y="340" type="line"/>
      <point x="550" y="350" type="line"/>
      <point x="550.0" y="451.470588235"/>
      <point x="470.0" y="500"/>
    </contour>
    <contour>
      <point x="340" y="255" type="curve"/>
      <point x="290" y="160" type="line"/>
      <point x="370" y="160"/>
      <point x="380" y="150"/>
      <point x="390" y="75" type="curve" smooth="yes"/>
      <point x="400" y="0" type="line"/>
      <point x="550" y="0" type="line"/>
      <point x="540" y="75" type="line" smooth="yes"/>
      <point x="525" y="200"/>
      <point x="470" y="255"/>
    </contour>
  </outline>
</glyph>
<glyph name="T.small" format="1">
  <advance width="600"/>
  <outline>
    <contour>
      <point x="225" y="0" type="line"/>
      <point x="375" y="0" type="line"/>
      <point x="375" y="500" type="line"/>
      <point x="225" y="500" type="line"/>
    </contour>
    <contour>
      <point x="25" y="350" type="line"/>
      <point x="575" y="350" type="line"/>
      <point x="575" y="500" type="line"/>
      <point x="25" y="500" type="line"/>
    </contour>
  </outline>
</glyph>
<glyph name="Thorn.small" format="1">
  <advance width="600"/>
  <outline>
    <contour>
      <point x="330" y="445" type="curve" smooth="yes"/>
      <point x="110" y="445" type="line"/>
      <point x="110" y="295" type="line"/>
      <point x="300" y="295" type="line"/>
      <point x="385.0" y="295.0"/>
      <point x="400.0" y="281.153846154"/>
      <point x="400" y="250" type="curve"/>
      <point x="550" y="250" type="line"/>
      <point x="550" y="270" type="line"/>
      <point x="550.0" y="386.666666667"/>
      <point x="470.0" y="445"/>
    </contour>
    <contour>
      <point x="200" y="0" type="line"/>
      <point x="200" y="500" type="line"/>
      <point x="50" y="500" type="line"/>
      <point x="50" y="0" type="line"/>
    </contour>
    <contour>
      <point x="330" y="55" type="line" smooth="yes"/>
      <point x="470.0" y="55"/>
      <point x="550.0" y="113.333333333"/>
      <point x="550" y="230" type="curve"/>
      <point x="550" y="250" type="line"/>
      <point x="400" y="250" type="line"/>
      <point x="400.0" y="218.846153846"/>
      <point x="385.0" y="205.0"/>
      <point x="300" y="205" type="curve"/>
      <point x="110" y="205" type="line"/>
      <point x="110" y="55" type="line"/>
    </contour>
  </outline>
</glyph>
<glyph name="V.small" format="1">
  <advance width="600"/>
  <outline>
    <component base="v"/>
    <contour>
      <point x="300.0" y="50.0" type="move" name="top"/>
    </contour>
    <contour>
      <point x="300.0" y="-150.0" type="move" name="top"/>
    </contour>
  </outline>
</glyph>
<glyph name="W.small" format="1">
  <advance width="950"/>
  <outline>
    <contour>
      <point x="600" y="0" type="curve"/>
      <point x="740" y="75" type="line"/>
      <point x="594.735254952" y="171.843163365"/>
      <point x="550" y="222.4"/>
      <point x="550" y="410" type="curve" smooth="yes"/>
      <point x="550" y="500" type="line"/>
      <point x="400" y="500" type="line"/>
      <point x="400" y="410" type="line" smooth="yes"/>
      <point x="400" y="222.4"/>
      <point x="355.264745048" y="171.843163365"/>
      <point x="210" y="75" type="curve"/>
      <point x="250" y="0" type="line"/>
      <point x="350" y="0" type="line"/>
      <point x="405" y="40"/>
      <point x="460" y="110"/>
      <point x="475" y="175" type="curve"/>
      <point x="490" y="110"/>
      <point x="545" y="40"/>
    </contour>
    <contour>
      <point x="250" y="0" type="curve"/>
      <point x="390" y="75" type="line"/>
      <point x="235" y="150"/>
      <point x="200" y="210"/>
      <point x="200" y="410" type="curve" smooth="yes"/>
      <point x="200" y="500" type="line"/>
      <point x="50" y="500" type="line"/>
      <point x="50" y="410" type="line" smooth="yes"/>
      <point x="50" y="210"/>
      <point x="95" y="90"/>
    </contour>
    <contour>
      <point x="700" y="0" type="line"/>
      <point x="855" y="90"/>
      <point x="900" y="210"/>
      <point x="900" y="410" type="curve" smooth="yes"/>
      <point x="900" y="500" type="line"/>
      <point x="750" y="500" type="line"/>
      <point x="750" y="410" type="line" smooth="yes"/>
      <point x="750" y="210"/>
      <point x="715" y="150"/>
      <point x="560" y="75" type="curve"/>
      <point x="600" y="0" type="line"/>
    </contour>
    <contour>
      <point x="300.0" y="50.0" type="move" name="top"/>
    </contour>
    <contour>
      <point x="650.0" y="50.0" type="move" name="top"/>
    </contour>
    <contour>
      <point x="300" y="50" type="move" name="top"/>
    </contour>
    <contour>
      <point x="300" y="-150" type="move" name="top"/>
    </contour>
  </outline>
</glyph>
<glyph name="Y.small" format="1">
  <advance width="600"/>
  <outline>
    <contour>
      <point x="225" y="0" type="line"/>
      <point x="375" y="0" type="line"/>
      <point x="375" y="245" type="line"/>
      <point x="225" y="245" type="line"/>
    </contour>
    <contour>
      <point x="250" y="125" type="curve"/>
      <point x="390" y="200" type="line"/>
      <point x="250" y="280"/>
      <point x="200" y="334.615384615"/>
      <point x="200" y="450" type="curve" smooth="yes"/>
      <point x="200" y="500" type="line"/>
      <point x="50" y="500" type="line"/>
      <point x="50" y="450" type="line" smooth="yes"/>
      <point x="50" y="328.125"/>
      <point x="100" y="205"/>
    </contour>
    <contour>
      <point x="350" y="125" type="line"/>
      <point x="500" y="205"/>
      <point x="550" y="328.125"/>
      <point x="550" y="450" type="curve" smooth="yes"/>
      <point x="550" y="500" type="line"/>
      <point x="400" y="500" type="line"/>
      <point x="400" y="450" type="line" smooth="yes"/>
      <point x="400" y="334.615384615"/>
      <point x="350" y="280"/>
      <point x="210" y="200" type="curve"/>
      <point x="250" y="125" type="line"/>
    </contour>
    <contour>
      <point x="300" y="450" type="move" name="top"/>
    </contour>
  </outline>
</glyph>
<glyph name="Zcaron.small" format="1">
  <advance width="600"/>
  <outline>
    <component base="z"/>
    <component base="caron" xOffset="195" yOffset="-50"/>
    <contour>
      <point x="270.0" y="450.0" type="move" name="top"/>
    </contour>
  </outline>
</glyph>
<glyph name="ae.alt" format="1">
  <advance width="950"/>
  <outline>
    <contour>
      <point x="540" y="0" type="line"/>
      <point x="550" y="80" type="line"/>
      <point x="550" y="420" type="line"/>
      <point x="540" y="500" type="line"/>
      <point x="410" y="500" type="line"/>
      <point x="400" y="420" type="line"/>
      <point x="400" y="80" type="line"/>
      <point x="410" y="0" type="line"/>
    </contour>
    <contour>
      <point x="400" y="80" type="curve"/>
      <point x="400" y="240" type="line"/>
      <point x="400" y="170"/>
      <point x="380" y="140"/>
      <point x="300" y="140" type="curve" smooth="yes"/>
      <point x="240" y="140"/>
      <point x="200" y="170"/>
      <point x="200" y="240" type="curve"/>
      <point x="200" y="250" type="line"/>
      <point x="50" y="250" type="line"/>
      <point x="50" y="210" type="line"/>
      <point x="50" y="60"/>
      <point x="120" y="-10"/>
      <point x="240" y="-10" type="curve"/>
      <point x="335" y="-10"/>
      <point x="380" y="25"/>
    </contour>
    <contour>
      <point x="380" y="475"/>
      <point x="335" y="510"/>
      <point x="240" y="510" type="curve"/>
      <point x="120" y="510"/>
      <point x="50" y="440"/>
      <point x="50" y="290" type="curve"/>
      <point x="50" y="250" type="line"/>
      <point x="200" y="250" type="line"/>
      <point x="200" y="260" type="line"/>
      <point x="200" y="330"/>
      <point x="240" y="360"/>
      <point x="300" y="360" type="curve" smooth="yes"/>
      <point x="380" y="360"/>
      <point x="400" y="330"/>
      <point x="400" y="260" type="curve"/>
      <point x="400" y="420" type="line"/>
    </contour>
    <contour>
      <point x="500" y="205" type="line"/>
      <point x="900" y="205" type="line"/>
      <point x="900" y="295" type="line"/>
      <point x="500" y="295" type="line"/>
    </contour>
    <contour>
      <point x="710" y="-10" type="curve"/>
      <point x="840" y="-10"/>
      <point x="900.0" y="45.0"/>
      <point x="900" y="155" type="curve"/>
      <point x="900" y="160" type="line"/>
      <point x="750" y="160" type="line"/>
      <point x="750" y="140"/>
      <point x="740" y="140"/>
      <point x="650" y="140" type="curve"/>
      <point x="570" y="140"/>
      <point x="550" y="170"/>
      <point x="550" y="240" type="curve"/>
      <point x="550" y="80" type="line"/>
      <point x="570" y="25"/>
      <point x="615" y="-10"/>
    </contour>
    <contour>
      <point x="710" y="510" type="curve"/>
      <point x="615" y="510"/>
      <point x="570" y="475"/>
      <point x="550" y="420" type="curve"/>
      <point x="550" y="260" type="line"/>
      <point x="550" y="330"/>
      <point x="570" y="360"/>
      <point x="650" y="360" type="curve"/>
      <point x="730" y="360"/>
      <point x="750" y="350"/>
      <point x="750" y="320" type="curve"/>
      <point x="750" y="290" type="line"/>
      <point x="900" y="290" type="line"/>
      <point x="900" y="320" type="line"/>
      <point x="900.0" y="460.0"/>
      <point x="840" y="510"/>
    </contour>
    <contour>
      <point x="650.0" y="500.0" type="move" name="top"/>
    </contour>
    <contour>
      <point x="650.0" y="500.0" type="move" name="top"/>
    </contour>
  </outline>
</glyph>
<glyph name="braceleft.cap" format="1">
  <advance width="250"/>
  <outline>
    <contour>
      <point x="50" y="450" type="line"/>
      <point x="50" y="410"/>
      <point x="40" y="400"/>
      <point x="0" y="390" type="curve"/>
      <point x="0" y="310" type="line"/>
      <point x="40" y="300"/>
      <point x="50" y="290"/>
      <point x="50" y="250" type="curve"/>
      <point x="200" y="250" type="line"/>
      <point x="200" y="310"/>
      <point x="180" y="340"/>
      <point x="150" y="350" type="curve"/>
      <point x="180" y="360"/>
      <point x="200" y="390"/>
      <point x="200" y="450" type="curve"/>
    </contour>
    <contour>
      <point x="250" y="0" type="curve"/>
      <point x="270" y="0" type="line"/>
      <point x="270" y="125" type="line"/>
      <point x="250" y="125" type="line"/>
      <point x="220" y="125"/>
      <point x="200" y="135"/>
      <point x="200" y="175" type="curve" smooth="yes"/>
      <point x="200" y="250" type="line"/>
      <point x="50" y="250" type="line"/>
      <point x="50" y="175" type="line" smooth="yes"/>
      <point x="50" y="60"/>
      <point x="120" y="0"/>
    </contour>
    <contour>
      <point x="250" y="700" type="line"/>
      <point x="120" y="700"/>
      <point x="50" y="640"/>
      <point x="50" y="525" type="curve" smooth="yes"/>
      <point x="50" y="450" type="line"/>
      <point x="200" y="450" type="line"/>
      <point x="200" y="525" type="line" smooth="yes"/>
      <point x="200" y="565"/>
      <point x="220" y="575"/>
      <point x="250" y="575" type="curve"/>
      <point x="270" y="575" type="line"/>
      <point x="270" y="700" type="line"/>
    </contour>
  </outline>
</glyph>
<glyph name="bracketleft.cap" format="1">
  <advance width="250"/>
  <outline>
    <contour>
      <point x="50" y="700" type="line"/>
      <point x="50" y="0" type="line"/>
      <point x="250" y="0" type="line"/>
      <point x="250" y="125" type="line"/>
      <point x="200" y="125" type="line"/>
      <point x="200" y="575" type="line" smooth="yes"/>
      <point x="250" y="575" type="line"/>
      <point x="250" y="700" type="line"/>
    </contour>
  </outline>
</glyph>
<glyph name="diagonalcrosshatchfill" format="1">
  <advance width="1000"/>
  <outline>
    <contour>
      <point x="0" y="700" type="line"/>
      <point x="1000" y="-300" type="line"/>
      <point x="1000" y="-160" type="line"/>
      <point x="140" y="700" type="line"/>
    </contour>
    <contour>
      <point x="140" y="-300" type="line"/>
      <point x="0" y="-160" type="line"/>
      <point x="0" y="-300" type="line"/>
    </contour>
    <contour>
      <point x="0" y="365" type="line"/>
      <point x="665" y="-300" type="line"/>
      <point x="805" y="-300" type="line"/>
      <point x="0" y="505" type="line"/>
    </contour>
    <contour>
      <point x="665" y="700" type="line"/>
      <point x="1000" y="365" type="line"/>
      <point x="1000" y="505" type="line"/>
      <point x="805" y="700" type="line"/>
    </contour>
    <contour>
      <point x="0" y="35" type="line"/>
      <point x="335" y="-300" type="line"/>
      <point x="475" y="-300" type="line"/>
      <point x="0" y="175" type="line"/>
    </contour>
    <contour>
      <point x="335" y="700" type="line"/>
      <point x="1000" y="35" type="line"/>
      <point x="1000" y="175" type="line"/>
      <point x="475" y="700" type="line"/>
    </contour>
    <contour>
      <point x="1000" y="700" type="line"/>
      <point x="860" y="700" type="line"/>
      <point x="0" y="-160" type="line"/>
      <point x="0" y="-300" type="line"/>
    </contour>
    <contour>
      <point x="860" y="-300" type="line"/>
      <point x="1000" y="-300" type="line"/>
      <point x="1000" y="-160" type="line"/>
    </contour>
    <contour>
      <point x="1000" y="365" type="line"/>
      <point x="1000" y="505" type="line"/>
      <point x="195" y="-300" type="line"/>
      <point x="335" y="-300" type="line"/>
    </contour>
    <contour>
      <point x="335" y="700" type="line"/>
      <point x="195" y="700" type="line"/>
      <point x="0" y="505" type="line"/>
      <point x="0" y="365" type="line"/>
    </contour>
    <contour>
      <point x="1000" y="35" type="line"/>
      <point x="1000" y="175" type="line"/>
      <point x="525" y="-300" type="line"/>
      <point x="665" y="-300" type="line"/>
    </contour>
    <contour>
      <point x="665" y="700" type="line"/>
      <point x="525" y="700" type="line"/>
      <point x="0" y="175" type="line"/>
      <point x="0" y="35" type="line"/>
    </contour>
  </outline>
</glyph>
<glyph name="e.superior" format="1">
  <advance width="400"/>
  <outline>
    <contour>
      <point x="350" y="590" type="line" smooth="yes"/>
      <point x="350" y="662.857142857"/>
      <point x="290.0" y="710.0"/>
      <point x="200" y="710" type="curve" smooth="yes"/>
      <point x="120.0" y="710.0"/>
      <point x="50" y="662.857142857"/>
      <point x="50" y="590" type="curve" smooth="yes"/>
      <point x="50" y="540" type="line"/>
      <point x="140" y="540" type="line"/>
      <point x="140" y="590" type="line" smooth="yes"/>
      <point x="140" y="615.0"/>
      <point x="164.0" y="620.0"/>
      <point x="200" y="620" type="curve" smooth="yes"/>
      <point x="236.0" y="620.0"/>
      <point x="260" y="615.0"/>
      <point x="260" y="590" type="curve" smooth="yes"/>
      <point x="260" y="570" type="line"/>
      <point x="350" y="570" type="line"/>
    </contour>
    <contour>
      <point x="350" y="490" type="curve"/>
      <point x="350" y="500" type="line"/>
      <point x="260" y="500" type="line"/>
      <point x="260" y="490" type="line"/>
      <point x="260.0" y="480.0"/>
      <point x="236.0" y="480.0"/>
      <point x="200" y="480" type="curve" smooth="yes"/>
      <point x="164.0" y="480.0"/>
      <point x="140" y="490.0"/>
      <point x="140" y="515" type="curve" smooth="yes"/>
      <point x="140" y="540" type="line"/>
      <point x="50" y="540" type="line"/>
      <point x="50" y="515" type="line"/>
      <point x="50.0" y="438.076923077"/>
      <point x="120.0" y="390.0"/>
      <point x="200" y="390" type="curve" smooth="yes"/>
      <point x="290.0" y="390.0"/>
      <point x="350.0" y="428.095238095"/>
    </contour>
    <contour>
      <point x="90" y="525" type="line"/>
      <point x="350" y="525" type="line"/>
      <point x="350" y="580" type="line"/>
      <point x="90" y="580" type="line"/>
    </contour>
  </outline>
</glyph>
<glyph name="g.superior" format="1">
  <advance width="400"/>
  <outline>
    <contour>
      <point x="350" y="700" type="line"/>
      <point x="285" y="700" type="line"/>
      <point x="270" y="640" type="line"/>
      <point x="260" y="640" type="line"/>
      <point x="260" y="485" type="line"/>
      <point x="270" y="485" type="line"/>
      <point x="265" y="460"/>
      <point x="260" y="440"/>
      <point x="260" y="415" type="curve"/>
      <point x="350" y="415" type="line"/>
    </contour>
    <contour>
      <point x="350" y="415" type="curve"/>
      <point x="260" y="415" type="line" smooth="yes"/>
      <point x="260" y="390"/>
      <point x="235" y="380"/>
      <point x="200" y="380" type="curve" smooth="yes"/>
      <point x="165" y="380"/>
      <point x="140" y="380"/>
      <point x="140" y="405" type="curve"/>
      <point x="140" y="415"/>
      <point x="145" y="425"/>
      <point x="160" y="425" type="curve"/>
      <point x="215" y="425"/>
      <point x="250" y="450"/>
      <point x="260" y="485" type="curve"/>
      <point x="260" y="560" type="line"/>
      <point x="260" y="520"/>
      <point x="240" y="505"/>
      <point x="200" y="505" type="curve" smooth="yes"/>
      <point x="155" y="505"/>
      <point x="135" y="520"/>
      <point x="135" y="560" type="curve"/>
      <point x="135" y="565" type="line" smooth="yes"/>
      <point x="135" y="605"/>
      <point x="155" y="620"/>
      <point x="200" y="620" type="curve" smooth="yes"/>
      <point x="240" y="620"/>
      <point x="260" y="605"/>
      <point x="260" y="565" type="curve"/>
      <point x="260" y="640" type="line"/>
      <point x="250" y="680"/>
      <point x="215" y="710"/>
      <point x="160" y="710" type="curve"/>
      <point x="75" y="710"/>
      <point x="45" y="665"/>
      <point x="45" y="560" type="curve" smooth="yes"/>
      <point x="45" y="510"/>
      <point x="65" y="475"/>
      <point x="105" y="465" type="curve"/>
      <point x="105" y="455" type="line"/>
      <point x="65" y="445"/>
      <point x="50" y="420"/>
      <point x="50" y="390" type="curve" smooth="yes"/>
      <point x="50" y="325"/>
      <point x="105" y="290"/>
      <point x="200" y="290" type="curve" smooth="yes"/>
      <point x="280" y="290"/>
      <point x="350" y="340"/>
    </contour>
  </outline>
</glyph>
<glyph name="hammer" format="1">
  <advance width="900"/>
  <outline>
    <contour>
      <point x="235" y="0" type="curve"/>
      <point x="375" y="75" type="line"/>
      <point x="233.093087146" y="169.604608569"/>
      <point x="200" y="250.0"/>
      <point x="200" y="400" type="curve" smooth="yes"/>
      <point x="200" y="500" type="line"/>
      <point x="50" y="500" type="line"/>
      <point x="50" y="400" type="line" smooth="yes"/>
      <point x="50" y="250.0"/>
      <point x="83.5331645303" y="94.6667721685"/>
    </contour>
    <contour>
      <point x="665" y="0" type="line"/>
      <point x="815" y="95"/>
      <point x="850" y="250"/>
      <point x="850" y="400" type="curve" smooth="yes"/>
      <point x="850" y="500" type="line"/>
      <point x="700" y="500" type="line"/>
      <point x="700" y="400" type="line" smooth="yes"/>
      <point x="700" y="250"/>
      <point x="665" y="170"/>
      <point x="525" y="75" type="curve"/>
      <point x="565" y="0" type="line"/>
    </contour>
    <contour>
      <point x="565" y="0" type="curve"/>
      <point x="705" y="75" type="line"/>
      <point x="560.419665037" y="171.386889975"/>
      <point x="525" y="250.0"/>
      <point x="525" y="400" type="curve" smooth="yes"/>
      <point x="525" y="500" type="line"/>
      <point x="375" y="500" type="line"/>
      <point x="375" y="400" type="line" smooth="yes"/>
      <point x="375" y="250.0"/>
      <point x="339.580334963" y="171.386889975"/>
      <point x="195" y="75" type="curve"/>
      <point x="235" y="0" type="line"/>
      <point x="335" y="0" type="line"/>
      <point x="386.906508716" y="33.0314146373"/>
      <point x="430.18019865" y="100.495546288"/>
      <point x="450" y="155" type="curve"/>
      <point x="469.81980135" y="100.495546288"/>
      <point x="513.093491284" y="33.0314146373"/>
    </contour>
  </outline>
</glyph>
<glyph name="l.superior" format="1">
  <advance width="200"/>
  <outline>
    <contour>
      <point x="55" y="400" type="line"/>
      <point x="145" y="400" type="line"/>
      <point x="145" y="800" type="line"/>
      <point x="55" y="800" type="line"/>
    </contour>
  </outline>
</glyph>
<glyph name="m.alt2" format="1">
  <advance width="800"/>
  <outline>
    <contour>
      <point x="50" y="0" type="line"/>
      <point x="200" y="0" type="line"/>
      <point x="200" y="420" type="line"/>
      <point x="190" y="500" type="line"/>
      <point x="50" y="500" type="line"/>
    </contour>
    <contour>
      <point x="200" y="420" type="curve"/>
      <point x="200" y="285" type="line"/>
      <point x="200.0" y="335.0"/>
      <point x="218.0" y="360.0"/>
      <point x="260" y="360" type="curve" smooth="yes"/>
      <point x="305.5" y="360.0"/>
      <point x="325.0" y="340.0"/>
      <point x="325" y="285" type="curve"/>
      <point x="325" y="0" type="line"/>
      <point x="475" y="0" type="line"/>
      <point x="475" y="290" type="line"/>
      <point x="475.0" y="450.0"/>
      <point x="425.178571429" y="510.0"/>
      <point x="320" y="510" type="curve"/>
      <point x="250" y="510"/>
      <point x="205.00389362" y="475.042829821"/>
    </contour>
    <contour>
      <point x="455" y="400" type="curve"/>
      <point x="475" y="285" type="line"/>
      <point x="475.0" y="335.0"/>
      <point x="493.0" y="360.0"/>
      <point x="535" y="360" type="curve" smooth="yes"/>
      <point x="580.5" y="360.0"/>
      <point x="600.0" y="340.0"/>
      <point x="600" y="285" type="curve"/>
      <point x="600" y="0" type="line"/>
      <point x="750" y="0" type="line"/>
      <point x="750" y="290" type="line"/>
      <point x="750.0" y="450.0"/>
      <point x="700.178571429" y="510.0"/>
      <point x="595" y="510" type="curve"/>
      <point x="514.230769231" y="510.0"/>
      <point x="460.002348909" y="465.030535814"/>
    </contour>
  </outline>
</glyph>
<glyph name="numero" format="1">
  <advance width="1000"/>
  <outline>
    <contour>
      <point x="950" y="150" type="line"/>
      <point x="950" y="300" type="line"/>
      <point x="650" y="300" type="line"/>
      <point x="650" y="150" type="line"/>
    </contour>
    <contour>
      <point x="410" y="0" type="line"/>
      <point x="550" y="0" type="line"/>
      <point x="550" y="700" type="line"/>
      <point x="400" y="700" type="line"/>
      <point x="400" y="400" type="line"/>
      <point x="405" y="315" type="line"/>
      <point x="190" y="700" type="line"/>
      <point x="50" y="700" type="line"/>
      <point x="50" y="0" type="line"/>
      <point x="200" y="0" type="line"/>
      <point x="200" y="300" type="line"/>
      <point x="195" y="385" type="line"/>
    </contour>
    <component base="degree" xOffset="600"/>
    <contour>
      <point x="300.0" y="650.0" type="move" name="top"/>
    </contour>
    <contour>
      <point x="300" y="650" type="move" name="top"/>
    </contour>
  </outline>
</glyph>
<glyph name="one.sup" format="1">
  <advance width="200"/>
  <outline>
    <contour>
      <point x="60" y="400" type="line"/>
      <point x="150" y="400" type="line"/>
      <point x="150" y="700" type="line"/>
      <point x="60" y="700" type="line"/>
    </contour>
    <contour>
      <point x="90" y="700" type="line"/>
      <point x="30" y="700" type="line"/>
      <point x="10" y="610" type="line"/>
      <point x="100" y="610" type="line"/>
    </contour>
  </outline>
</glyph>
<glyph name="published" format="1">
  <advance width="800"/>
  <outline>
    <contour>
      <point x="430" y="700" type="curve" smooth="yes"/>
      <point x="400" y="700" type="line"/>
      <point x="400" y="580" type="line"/>
      <point x="585" y="580"/>
      <point x="630" y="505"/>
      <point x="630" y="400" type="curve" smooth="yes"/>
      <point x="630" y="350" type="line"/>
      <point x="750" y="350" type="line"/>
      <point x="750" y="430" type="line"/>
      <point x="750" y="590"/>
      <point x="640" y="700"/>
    </contour>
    <contour>
      <point x="430" y="0" type="line" smooth="yes"/>
      <point x="640" y="0"/>
      <point x="750" y="110"/>
      <point x="750" y="270" type="curve"/>
      <point x="750" y="350" type="line"/>
      <point x="630" y="350" type="line"/>
      <point x="630" y="300" type="line" smooth="yes"/>
      <point x="630" y="185"/>
      <point x="585" y="120"/>
      <point x="400" y="120" type="curve"/>
      <point x="400" y="0" type="line"/>
    </contour>
    <contour>
      <point x="370" y="700" type="line" smooth="yes"/>
      <point x="160" y="700"/>
      <point x="50" y="590"/>
      <point x="50" y="430" type="curve"/>
      <point x="50" y="350" type="line"/>
      <point x="170" y="350" type="line"/>
      <point x="170" y="400" type="line" smooth="yes"/>
      <point x="170" y="515"/>
      <point x="215" y="580"/>
      <point x="400" y="580" type="curve"/>
      <point x="400" y="700" type="line"/>
    </contour>
    <contour>
      <point x="370" y="0" type="curve" smooth="yes"/>
      <point x="400" y="0" type="line"/>
      <point x="400" y="120" type="line"/>
      <point x="215" y="120"/>
      <point x="170" y="185"/>
      <point x="170" y="300" type="curve" smooth="yes"/>
      <point x="170" y="350" type="line"/>
      <point x="50" y="350" type="line"/>
      <point x="50" y="270" type="line"/>
      <point x="50" y="110"/>
      <point x="160" y="0"/>
    </contour>
    <contour>
      <point x="350" y="190" type="line"/>
      <point x="350" y="510" type="line"/>
      <point x="240" y="510" type="line"/>
      <point x="240" y="190" type="line"/>
    </contour>
    <contour>
      <point x="340" y="330" type="move"/>
      <point x="330" y="245" type="line"/>
      <point x="400" y="230" type="line"/>
      <point x="485.0" y="230.0"/>
      <point x="560.0" y="273.076923077"/>
      <point x="560" y="370" type="curve"/>
      <point x="560.0" y="443.541666667"/>
      <point x="510.0" y="510.0"/>
      <point x="410" y="510" type="curve"/>
      <point x="310" y="510" type="line"/>
      <point x="310" y="410" type="line"/>
      <point x="390" y="410" type="line"/>
      <point x="435.0" y="410.0"/>
      <point x="440.0" y="398.571428571"/>
      <point x="440" y="370" type="curve"/>
      <point x="440.0" y="338.888888889"/>
      <point x="430.0" y="330.0"/>
      <point x="400" y="330" type="curve"/>
      <point x="340" y="330" type="line"/>
    </contour>
    <contour>
      <point x="300.0" y="650.0" type="move" name="top"/>
    </contour>
  </outline>
</glyph>
<glyph name="q.superior" format="1">
  <advance width="400"/>
  <outline>
    <contour>
      <point x="350" y="700" type="line"/>
      <point x="285" y="700" type="line"/>
      <point x="270" y="640" type="line"/>
      <point x="260" y="640" type="line"/>
      <point x="260" y="460" type="line"/>
      <point x="270" y="460" type="line"/>
      <point x="265" y="430"/>
      <point x="260" y="400"/>
      <point x="260" y="355" type="curve" smooth="yes"/>
      <point x="260" y="300" type="line"/>
      <point x="350" y="300" type="line"/>
    </contour>
    <contour>
      <point x="50" y="540" type="line" smooth="yes"/>
      <point x="50" y="440"/>
      <point x="80" y="390"/>
      <point x="160" y="390" type="curve"/>
      <point x="215" y="390"/>
      <point x="250" y="420"/>
      <point x="260" y="460" type="curve"/>
      <point x="260" y="535" type="line"/>
      <point x="260" y="495"/>
      <point x="240" y="480"/>
      <point x="200" y="480" type="curve" smooth="yes"/>
      <point x="160" y="480"/>
      <point x="140" y="495"/>
      <point x="140" y="535" type="curve"/>
      <point x="140" y="565" type="line" smooth="yes"/>
      <point x="140" y="605"/>
      <point x="160" y="620"/>
      <point x="200" y="620" type="curve" smooth="yes"/>
      <point x="240" y="620"/>
      <point x="260" y="605"/>
      <point x="260" y="565" type="curve"/>
      <point x="260" y="640" type="line"/>
      <point x="250" y="680"/>
      <point x="215" y="710"/>
      <point x="160" y="710" type="curve"/>
      <point x="80" y="710"/>
      <point x="50" y="660"/>
      <point x="50" y="560" type="curve"/>
    </contour>
  </outline>
</glyph>
<glyph name="u.superior" format="1">
  <advance width="400"/>
  <outline>
    <contour>
      <point x="350" y="700" type="line"/>
      <point x="260" y="700" type="line"/>
      <point x="260" y="460" type="line"/>
      <point x="270" y="460" type="line"/>
      <point x="285" y="400" type="line"/>
      <point x="350" y="400" type="line"/>
    </contour>
    <contour>
      <point x="260" y="460" type="curve"/>
      <point x="260" y="535" type="line"/>
      <point x="260" y="495"/>
      <point x="240" y="480"/>
      <point x="200" y="480" type="curve" smooth="yes"/>
      <point x="160" y="480"/>
      <point x="140" y="495"/>
      <point x="140" y="535" type="curve" smooth="yes"/>
      <point x="140" y="700" type="line"/>
      <point x="50" y="700" type="line"/>
      <point x="50" y="540" type="line" smooth="yes"/>
      <point x="50" y="440"/>
      <point x="80" y="390"/>
      <point x="160" y="390" type="curve"/>
      <point x="215" y="390"/>
      <point x="250" y="420"/>
    </contour>
  </outline>
</glyph>
<glyph name="verticalruler" format="1">
  <advance width="800"/>
  <outline>
    <contour>
      <point x="450" y="400" type="line"/>
      <point x="750" y="400" type="line"/>
      <point x="750" y="500" type="line"/>
      <point x="450" y="500" type="line"/>
    </contour>
    <contour>
      <point x="450" y="600" type="line"/>
      <point x="750" y="600" type="line"/>
      <point x="750" y="700" type="line"/>
      <point x="450" y="700" type="line"/>
    </contour>
    <contour>
      <point x="50" y="0" type="line"/>
      <point x="750" y="0" type="line"/>
      <point x="750" y="100" type="line"/>
      <point x="50" y="100" type="line"/>
    </contour>
    <contour>
      <point x="450" y="200" type="line"/>
      <point x="750" y="200" type="line"/>
      <point x="750" y="300" type="line"/>
      <point x="450" y="300" type="line"/>
    </contour>
    <contour>
      <point x="450" y="-200" type="line"/>
      <point x="750" y="-200" type="line"/>
      <point x="750" y="-100" type="line"/>
      <point x="450" y="-100" type="line"/>
    </contour>
  </outline>
</glyph>
<glyph name="x.superior" format="1">
  <advance width="400"/>
  <outline>
    <contour>
      <point x="205" y="515" type="line"/>
      <point x="240" y="480"/>
      <point x="260" y="455"/>
      <point x="260" y="420" type="curve" smooth="yes"/>
      <point x="260" y="400" type="line"/>
      <point x="350" y="400" type="line"/>
      <point x="350" y="420" type="line" smooth="yes"/>
      <point x="350" y="465.0"/>
      <point x="317.480280859" y="521.145326882"/>
      <point x="265" y="545" type="curve"/>
      <point x="265" y="545"/>
      <point x="265" y="555"/>
      <point x="265" y="555" type="curve" smooth="yes"/>
      <point x="317.480280859" y="578.854673118"/>
      <point x="350" y="635.0"/>
      <point x="350" y="680" type="curve" smooth="yes"/>
      <point x="350" y="700" type="line"/>
      <point x="260" y="700" type="line"/>
      <point x="260" y="680" type="line" smooth="yes"/>
      <point x="260" y="645"/>
      <point x="240" y="620"/>
      <point x="205" y="585" type="curve"/>
      <point x="195" y="585" type="line"/>
      <point x="160" y="620"/>
      <point x="140" y="645"/>
      <point x="140" y="680" type="curve" smooth="yes"/>
      <point x="140" y="700" type="line"/>
      <point x="50" y="700" type="line"/>
      <point x="50" y="680" type="line" smooth="yes"/>
      <point x="50" y="635.0"/>
      <point x="82.5197191406" y="578.854673118"/>
      <point x="135" y="555" type="curve" smooth="yes"/>
      <point x="135" y="555"/>
      <point x="135" y="545"/>
      <point x="135" y="545" type="curve"/>
      <point x="82.5197191406" y="521.145326882"/>
      <point x="50" y="465.0"/>
      <point x="50" y="420" type="curve" smooth="yes"/>
      <point x="50" y="400" type="line"/>
      <point x="140" y="400" type="line"/>
      <point x="140" y="420" type="line" smooth="yes"/>
      <point x="140" y="455"/>
      <point x="160" y="480"/>
      <point x="195" y="515" type="curve"/>
    </contour>
  </outline>
</glyph>
<glyph name="z.superior" format="1">
  <advance width="400"/>
  <outline>
    <contour>
      <point x="50" y="465" type="line"/>
      <point x="50" y="400" type="line"/>
      <point x="350" y="400" type="line"/>
      <point x="350" y="485" type="line"/>
      <point x="290" y="485" type="line" smooth="yes"/>
      <point x="235" y="485"/>
      <point x="215" y="480"/>
      <point x="195" y="470" type="curve"/>
      <point x="185" y="480" type="line"/>
      <point x="350" y="635" type="line"/>
      <point x="350" y="700" type="line"/>
      <point x="50" y="700" type="line"/>
      <point x="50" y="615" type="line"/>
      <point x="110" y="615" type="line" smooth="yes"/>
      <point x="165" y="615"/>
      <point x="185" y="620"/>
      <point x="205" y="630" type="curve"/>
      <point x="215" y="620" type="line"/>
    </contour>
    <contour>
      <point x="300.0" y="500.0" type="move" name="top"/>
    </contour>
  </outline>
</glyph>
<glyph name="zero.slash" format="1">
  <advance width="600"/>
  <outline>
    <contour>
      <point x="135" y="125" type="line"/>
      <point x="200" y="75" type="line"/>
      <point x="410" y="450" type="line"/>
      <point x="465" y="575" type="line"/>
      <point x="400" y="625" type="line"/>
      <point x="190" y="250" type="line"/>
    </contour>
    <component base="zero"/>
  </outline>
</glyph>
